<mxfile host="app.diagrams.net" modified="2023-07-11T14:55:21.538Z" agent="Mozilla/5.0 (Macintosh; Intel Mac OS X 10_15_7) AppleWebKit/605.1.15 (KHTML, like Gecko) Version/16.5.1 Safari/605.1.15" etag="EbUHP917M-D7rQon_g_9" version="21.6.1" type="github" pages="3">
  <diagram name="part-01-Actors" id="ixp6hun_RJstKnStisOL">
    <mxGraphModel dx="1016" dy="696" grid="1" gridSize="10" guides="1" tooltips="1" connect="1" arrows="1" fold="1" page="1" pageScale="1" pageWidth="1169" pageHeight="827" math="0" shadow="0">
      <root>
        <mxCell id="0" />
        <mxCell id="1" parent="0" />
        <mxCell id="HY1gGdeRaSTk6mKzonEz-131" style="edgeStyle=orthogonalEdgeStyle;rounded=0;orthogonalLoop=1;jettySize=auto;html=1;" parent="1" source="HY1gGdeRaSTk6mKzonEz-114" target="HY1gGdeRaSTk6mKzonEz-119" edge="1">
          <mxGeometry relative="1" as="geometry">
            <Array as="points">
              <mxPoint x="2860" y="160" />
              <mxPoint x="2860" y="160" />
            </Array>
          </mxGeometry>
        </mxCell>
        <mxCell id="HY1gGdeRaSTk6mKzonEz-132" value="Analyze&lt;br&gt;Halt" style="edgeLabel;html=1;align=center;verticalAlign=middle;resizable=0;points=[];" parent="HY1gGdeRaSTk6mKzonEz-131" vertex="1" connectable="0">
          <mxGeometry x="0.0698" y="-2" relative="1" as="geometry">
            <mxPoint x="-2" y="3" as="offset" />
          </mxGeometry>
        </mxCell>
        <mxCell id="HY1gGdeRaSTk6mKzonEz-114" value="" style="rounded=0;whiteSpace=wrap;html=1;" parent="1" vertex="1">
          <mxGeometry x="2650" y="201" width="320" height="199" as="geometry" />
        </mxCell>
        <mxCell id="HY1gGdeRaSTk6mKzonEz-7" style="edgeStyle=orthogonalEdgeStyle;rounded=0;orthogonalLoop=1;jettySize=auto;html=1;" parent="1" source="HY1gGdeRaSTk6mKzonEz-3" target="HY1gGdeRaSTk6mKzonEz-4" edge="1">
          <mxGeometry relative="1" as="geometry">
            <Array as="points">
              <mxPoint x="315" y="384" />
              <mxPoint x="315" y="384" />
            </Array>
          </mxGeometry>
        </mxCell>
        <mxCell id="HY1gGdeRaSTk6mKzonEz-3" value="SourceAnalyzer" style="ellipse;whiteSpace=wrap;html=1;" parent="1" vertex="1">
          <mxGeometry x="235" y="494" width="120" height="80" as="geometry" />
        </mxCell>
        <mxCell id="HY1gGdeRaSTk6mKzonEz-4" value="DirectoryAnalyzer" style="ellipse;whiteSpace=wrap;html=1;" parent="1" vertex="1">
          <mxGeometry x="235" y="204" width="120" height="80" as="geometry" />
        </mxCell>
        <mxCell id="HY1gGdeRaSTk6mKzonEz-5" value="FileAnalyzer" style="ellipse;whiteSpace=wrap;html=1;" parent="1" vertex="1">
          <mxGeometry x="499" y="324" width="120" height="80" as="geometry" />
        </mxCell>
        <mxCell id="HY1gGdeRaSTk6mKzonEz-6" value="" style="endArrow=classic;html=1;rounded=0;" parent="1" target="HY1gGdeRaSTk6mKzonEz-3" edge="1">
          <mxGeometry width="50" height="50" relative="1" as="geometry">
            <mxPoint x="150" y="610" as="sourcePoint" />
            <mxPoint x="215" y="584" as="targetPoint" />
          </mxGeometry>
        </mxCell>
        <mxCell id="HY1gGdeRaSTk6mKzonEz-8" value="DirectoryAnalyzer" style="ellipse;whiteSpace=wrap;html=1;" parent="1" vertex="1">
          <mxGeometry x="499" y="84" width="120" height="80" as="geometry" />
        </mxCell>
        <mxCell id="HY1gGdeRaSTk6mKzonEz-9" value="DirectoryAnalyzer" style="ellipse;whiteSpace=wrap;html=1;" parent="1" vertex="1">
          <mxGeometry x="499" y="204" width="120" height="80" as="geometry" />
        </mxCell>
        <mxCell id="HY1gGdeRaSTk6mKzonEz-10" style="rounded=0;orthogonalLoop=1;jettySize=auto;html=1;entryX=0;entryY=0.5;entryDx=0;entryDy=0;" parent="1" source="HY1gGdeRaSTk6mKzonEz-4" target="HY1gGdeRaSTk6mKzonEz-8" edge="1">
          <mxGeometry relative="1" as="geometry">
            <mxPoint x="305" y="434" as="sourcePoint" />
            <mxPoint x="305" y="294" as="targetPoint" />
          </mxGeometry>
        </mxCell>
        <mxCell id="HY1gGdeRaSTk6mKzonEz-13" style="rounded=0;orthogonalLoop=1;jettySize=auto;html=1;exitX=0.985;exitY=0.647;exitDx=0;exitDy=0;exitPerimeter=0;entryX=0.026;entryY=0.647;entryDx=0;entryDy=0;entryPerimeter=0;dashed=1;endArrow=none;endFill=0;startArrow=classic;startFill=1;" parent="1" source="HY1gGdeRaSTk6mKzonEz-4" target="HY1gGdeRaSTk6mKzonEz-9" edge="1">
          <mxGeometry relative="1" as="geometry">
            <mxPoint x="362" y="239" as="sourcePoint" />
            <mxPoint x="519" y="154" as="targetPoint" />
          </mxGeometry>
        </mxCell>
        <mxCell id="HY1gGdeRaSTk6mKzonEz-14" style="rounded=0;orthogonalLoop=1;jettySize=auto;html=1;" parent="1" source="HY1gGdeRaSTk6mKzonEz-4" target="HY1gGdeRaSTk6mKzonEz-5" edge="1">
          <mxGeometry relative="1" as="geometry">
            <mxPoint x="362" y="267" as="sourcePoint" />
            <mxPoint x="512" y="301" as="targetPoint" />
          </mxGeometry>
        </mxCell>
        <mxCell id="HY1gGdeRaSTk6mKzonEz-15" value="..." style="text;html=1;align=center;verticalAlign=middle;resizable=0;points=[];autosize=1;strokeColor=none;fillColor=none;fontSize=28;" parent="1" vertex="1">
          <mxGeometry x="534" y="152" width="50" height="50" as="geometry" />
        </mxCell>
        <mxCell id="HY1gGdeRaSTk6mKzonEz-16" style="rounded=0;orthogonalLoop=1;jettySize=auto;html=1;entryX=1;entryY=0.35;entryDx=0;entryDy=0;entryPerimeter=0;exitX=0.065;exitY=0.767;exitDx=0;exitDy=0;exitPerimeter=0;dashed=1;" parent="1" source="HY1gGdeRaSTk6mKzonEz-8" target="HY1gGdeRaSTk6mKzonEz-4" edge="1">
          <mxGeometry relative="1" as="geometry">
            <mxPoint x="350" y="134" as="sourcePoint" />
            <mxPoint x="509" y="134" as="targetPoint" />
          </mxGeometry>
        </mxCell>
        <mxCell id="HY1gGdeRaSTk6mKzonEz-18" style="rounded=0;orthogonalLoop=1;jettySize=auto;html=1;entryX=1;entryY=0.5;entryDx=0;entryDy=0;endArrow=none;endFill=0;startArrow=classic;startFill=1;" parent="1" source="HY1gGdeRaSTk6mKzonEz-9" target="HY1gGdeRaSTk6mKzonEz-4" edge="1">
          <mxGeometry relative="1" as="geometry">
            <mxPoint x="495" y="244" as="sourcePoint" />
            <mxPoint x="365" y="242" as="targetPoint" />
          </mxGeometry>
        </mxCell>
        <mxCell id="HY1gGdeRaSTk6mKzonEz-19" value="analyze directory" style="rounded=0;whiteSpace=wrap;html=1;" parent="1" vertex="1">
          <mxGeometry x="325" y="144" width="110" height="20" as="geometry" />
        </mxCell>
        <mxCell id="HY1gGdeRaSTk6mKzonEz-20" value="ack" style="rounded=0;whiteSpace=wrap;html=1;" parent="1" vertex="1">
          <mxGeometry x="435" y="182" width="50" height="20" as="geometry" />
        </mxCell>
        <mxCell id="HY1gGdeRaSTk6mKzonEz-21" value="analyze file" style="rounded=0;whiteSpace=wrap;html=1;" parent="1" vertex="1">
          <mxGeometry x="405" y="284" width="80" height="20" as="geometry" />
        </mxCell>
        <mxCell id="HY1gGdeRaSTk6mKzonEz-22" style="edgeStyle=orthogonalEdgeStyle;rounded=0;orthogonalLoop=1;jettySize=auto;html=1;dashed=1;endArrow=none;endFill=0;startArrow=classic;startFill=1;" parent="1" source="HY1gGdeRaSTk6mKzonEz-3" target="HY1gGdeRaSTk6mKzonEz-4" edge="1">
          <mxGeometry relative="1" as="geometry">
            <mxPoint x="305" y="504" as="sourcePoint" />
            <mxPoint x="305" y="294" as="targetPoint" />
            <Array as="points">
              <mxPoint x="275" y="384" />
              <mxPoint x="275" y="384" />
            </Array>
          </mxGeometry>
        </mxCell>
        <mxCell id="HY1gGdeRaSTk6mKzonEz-23" style="rounded=0;orthogonalLoop=1;jettySize=auto;html=1;entryX=0.797;entryY=0.935;entryDx=0;entryDy=0;entryPerimeter=0;exitX=-0.003;exitY=0.455;exitDx=0;exitDy=0;exitPerimeter=0;dashed=1;" parent="1" source="HY1gGdeRaSTk6mKzonEz-5" target="HY1gGdeRaSTk6mKzonEz-4" edge="1">
          <mxGeometry relative="1" as="geometry">
            <mxPoint x="499" y="364" as="sourcePoint" />
            <mxPoint x="334.0006921099164" y="283.9956555683912" as="targetPoint" />
          </mxGeometry>
        </mxCell>
        <mxCell id="HY1gGdeRaSTk6mKzonEz-24" value="report" style="rounded=0;whiteSpace=wrap;html=1;" parent="1" vertex="1">
          <mxGeometry x="385" y="324" width="50" height="20" as="geometry" />
        </mxCell>
        <mxCell id="HY1gGdeRaSTk6mKzonEz-25" value="FileAnalyzer" style="ellipse;whiteSpace=wrap;html=1;" parent="1" vertex="1">
          <mxGeometry x="763" y="324" width="120" height="80" as="geometry" />
        </mxCell>
        <mxCell id="HY1gGdeRaSTk6mKzonEz-47" style="edgeStyle=orthogonalEdgeStyle;rounded=0;orthogonalLoop=1;jettySize=auto;html=1;" parent="1" source="HY1gGdeRaSTk6mKzonEz-26" target="HY1gGdeRaSTk6mKzonEz-3" edge="1">
          <mxGeometry relative="1" as="geometry">
            <Array as="points">
              <mxPoint x="950" y="140" />
              <mxPoint x="950" y="520" />
            </Array>
          </mxGeometry>
        </mxCell>
        <mxCell id="HY1gGdeRaSTk6mKzonEz-26" value="DirectoryAnalyzer" style="ellipse;whiteSpace=wrap;html=1;" parent="1" vertex="1">
          <mxGeometry x="763" y="84" width="120" height="80" as="geometry" />
        </mxCell>
        <mxCell id="HY1gGdeRaSTk6mKzonEz-27" value="DirectoryAnalyzer" style="ellipse;whiteSpace=wrap;html=1;" parent="1" vertex="1">
          <mxGeometry x="763" y="204" width="120" height="80" as="geometry" />
        </mxCell>
        <mxCell id="HY1gGdeRaSTk6mKzonEz-28" style="rounded=0;orthogonalLoop=1;jettySize=auto;html=1;entryX=0;entryY=0.5;entryDx=0;entryDy=0;" parent="1" target="HY1gGdeRaSTk6mKzonEz-26" edge="1">
          <mxGeometry relative="1" as="geometry">
            <mxPoint x="604" y="217" as="sourcePoint" />
            <mxPoint x="569" y="294" as="targetPoint" />
          </mxGeometry>
        </mxCell>
        <mxCell id="HY1gGdeRaSTk6mKzonEz-29" style="rounded=0;orthogonalLoop=1;jettySize=auto;html=1;exitX=0.985;exitY=0.647;exitDx=0;exitDy=0;exitPerimeter=0;entryX=0.026;entryY=0.647;entryDx=0;entryDy=0;entryPerimeter=0;dashed=1;endArrow=none;endFill=0;startArrow=classic;startFill=1;" parent="1" target="HY1gGdeRaSTk6mKzonEz-27" edge="1">
          <mxGeometry relative="1" as="geometry">
            <mxPoint x="617" y="256" as="sourcePoint" />
            <mxPoint x="783" y="154" as="targetPoint" />
          </mxGeometry>
        </mxCell>
        <mxCell id="HY1gGdeRaSTk6mKzonEz-30" style="rounded=0;orthogonalLoop=1;jettySize=auto;html=1;" parent="1" target="HY1gGdeRaSTk6mKzonEz-25" edge="1">
          <mxGeometry relative="1" as="geometry">
            <mxPoint x="609" y="266" as="sourcePoint" />
            <mxPoint x="776" y="301" as="targetPoint" />
          </mxGeometry>
        </mxCell>
        <mxCell id="HY1gGdeRaSTk6mKzonEz-31" value="..." style="text;html=1;align=center;verticalAlign=middle;resizable=0;points=[];autosize=1;strokeColor=none;fillColor=none;fontSize=28;" parent="1" vertex="1">
          <mxGeometry x="798" y="152" width="50" height="50" as="geometry" />
        </mxCell>
        <mxCell id="HY1gGdeRaSTk6mKzonEz-32" style="rounded=0;orthogonalLoop=1;jettySize=auto;html=1;entryX=1;entryY=0.35;entryDx=0;entryDy=0;entryPerimeter=0;exitX=0.065;exitY=0.767;exitDx=0;exitDy=0;exitPerimeter=0;dashed=1;" parent="1" source="HY1gGdeRaSTk6mKzonEz-26" edge="1">
          <mxGeometry relative="1" as="geometry">
            <mxPoint x="614" y="134" as="sourcePoint" />
            <mxPoint x="619" y="232" as="targetPoint" />
          </mxGeometry>
        </mxCell>
        <mxCell id="HY1gGdeRaSTk6mKzonEz-33" style="rounded=0;orthogonalLoop=1;jettySize=auto;html=1;entryX=1;entryY=0.5;entryDx=0;entryDy=0;endArrow=none;endFill=0;startArrow=classic;startFill=1;" parent="1" source="HY1gGdeRaSTk6mKzonEz-27" edge="1">
          <mxGeometry relative="1" as="geometry">
            <mxPoint x="759" y="244" as="sourcePoint" />
            <mxPoint x="619" y="244" as="targetPoint" />
          </mxGeometry>
        </mxCell>
        <mxCell id="HY1gGdeRaSTk6mKzonEz-37" style="rounded=0;orthogonalLoop=1;jettySize=auto;html=1;entryX=0.797;entryY=0.935;entryDx=0;entryDy=0;entryPerimeter=0;exitX=-0.003;exitY=0.455;exitDx=0;exitDy=0;exitPerimeter=0;dashed=1;" parent="1" source="HY1gGdeRaSTk6mKzonEz-25" edge="1">
          <mxGeometry relative="1" as="geometry">
            <mxPoint x="763" y="364" as="sourcePoint" />
            <mxPoint x="595" y="279" as="targetPoint" />
          </mxGeometry>
        </mxCell>
        <mxCell id="HY1gGdeRaSTk6mKzonEz-42" value="GUI" style="ellipse;whiteSpace=wrap;html=1;" parent="1" vertex="1">
          <mxGeometry x="235" y="664" width="120" height="80" as="geometry" />
        </mxCell>
        <mxCell id="HY1gGdeRaSTk6mKzonEz-43" style="edgeStyle=orthogonalEdgeStyle;rounded=0;orthogonalLoop=1;jettySize=auto;html=1;" parent="1" source="HY1gGdeRaSTk6mKzonEz-3" target="HY1gGdeRaSTk6mKzonEz-42" edge="1">
          <mxGeometry relative="1" as="geometry">
            <mxPoint x="325" y="506" as="sourcePoint" />
            <mxPoint x="325" y="292" as="targetPoint" />
            <Array as="points" />
          </mxGeometry>
        </mxCell>
        <mxCell id="HY1gGdeRaSTk6mKzonEz-40" value="report" style="rounded=0;whiteSpace=wrap;html=1;" parent="1" vertex="1">
          <mxGeometry x="908" y="176" width="50" height="20" as="geometry" />
        </mxCell>
        <mxCell id="HY1gGdeRaSTk6mKzonEz-45" value="report" style="rounded=0;whiteSpace=wrap;html=1;" parent="1" vertex="1">
          <mxGeometry x="230" y="360" width="50" height="20" as="geometry" />
        </mxCell>
        <mxCell id="HY1gGdeRaSTk6mKzonEz-50" style="edgeStyle=orthogonalEdgeStyle;rounded=0;orthogonalLoop=1;jettySize=auto;html=1;dashed=1;endArrow=none;endFill=0;startArrow=classic;startFill=1;" parent="1" source="HY1gGdeRaSTk6mKzonEz-26" target="HY1gGdeRaSTk6mKzonEz-3" edge="1">
          <mxGeometry relative="1" as="geometry">
            <mxPoint x="893" y="134" as="sourcePoint" />
            <mxPoint x="361" y="530" as="targetPoint" />
            <Array as="points">
              <mxPoint x="990" y="110" />
              <mxPoint x="990" y="540" />
            </Array>
          </mxGeometry>
        </mxCell>
        <mxCell id="HY1gGdeRaSTk6mKzonEz-52" value="Ack" style="rounded=0;whiteSpace=wrap;html=1;" parent="1" vertex="1">
          <mxGeometry x="405" y="534" width="50" height="20" as="geometry" />
        </mxCell>
        <mxCell id="HY1gGdeRaSTk6mKzonEz-53" style="edgeStyle=orthogonalEdgeStyle;rounded=0;orthogonalLoop=1;jettySize=auto;html=1;" parent="1" source="HY1gGdeRaSTk6mKzonEz-54" target="HY1gGdeRaSTk6mKzonEz-55" edge="1">
          <mxGeometry relative="1" as="geometry">
            <Array as="points">
              <mxPoint x="1415" y="326" />
              <mxPoint x="1415" y="326" />
            </Array>
          </mxGeometry>
        </mxCell>
        <mxCell id="HY1gGdeRaSTk6mKzonEz-91" style="edgeStyle=orthogonalEdgeStyle;rounded=0;orthogonalLoop=1;jettySize=auto;html=1;" parent="1" source="HY1gGdeRaSTk6mKzonEz-54" target="HY1gGdeRaSTk6mKzonEz-90" edge="1">
          <mxGeometry relative="1" as="geometry">
            <Array as="points">
              <mxPoint x="1407" y="566" />
            </Array>
          </mxGeometry>
        </mxCell>
        <mxCell id="HY1gGdeRaSTk6mKzonEz-54" value="SourceAnalyzer" style="ellipse;whiteSpace=wrap;html=1;shadow=1;" parent="1" vertex="1">
          <mxGeometry x="1335" y="436" width="120" height="80" as="geometry" />
        </mxCell>
        <mxCell id="HY1gGdeRaSTk6mKzonEz-55" value="DirectoryAnalyzer" style="ellipse;whiteSpace=wrap;html=1;shadow=1;" parent="1" vertex="1">
          <mxGeometry x="1335" y="146" width="120" height="80" as="geometry" />
        </mxCell>
        <mxCell id="HY1gGdeRaSTk6mKzonEz-56" value="FileAnalyzer" style="ellipse;whiteSpace=wrap;html=1;shadow=1;" parent="1" vertex="1">
          <mxGeometry x="1599" y="266" width="120" height="80" as="geometry" />
        </mxCell>
        <mxCell id="HY1gGdeRaSTk6mKzonEz-57" value="" style="endArrow=classic;html=1;rounded=0;" parent="1" target="HY1gGdeRaSTk6mKzonEz-89" edge="1">
          <mxGeometry width="50" height="50" relative="1" as="geometry">
            <mxPoint x="1617" y="802" as="sourcePoint" />
            <mxPoint x="1547" y="709.31" as="targetPoint" />
          </mxGeometry>
        </mxCell>
        <mxCell id="HY1gGdeRaSTk6mKzonEz-58" value="DirectoryAnalyzer" style="ellipse;whiteSpace=wrap;html=1;shadow=1;" parent="1" vertex="1">
          <mxGeometry x="1599" y="26" width="120" height="80" as="geometry" />
        </mxCell>
        <mxCell id="HY1gGdeRaSTk6mKzonEz-59" value="DirectoryAnalyzer" style="ellipse;whiteSpace=wrap;html=1;shadow=1;" parent="1" vertex="1">
          <mxGeometry x="1599" y="146" width="120" height="80" as="geometry" />
        </mxCell>
        <mxCell id="HY1gGdeRaSTk6mKzonEz-60" style="rounded=0;orthogonalLoop=1;jettySize=auto;html=1;entryX=0;entryY=0.5;entryDx=0;entryDy=0;" parent="1" source="HY1gGdeRaSTk6mKzonEz-55" target="HY1gGdeRaSTk6mKzonEz-58" edge="1">
          <mxGeometry relative="1" as="geometry">
            <mxPoint x="1405" y="376" as="sourcePoint" />
            <mxPoint x="1405" y="236" as="targetPoint" />
          </mxGeometry>
        </mxCell>
        <mxCell id="HY1gGdeRaSTk6mKzonEz-61" style="rounded=0;orthogonalLoop=1;jettySize=auto;html=1;exitX=0.985;exitY=0.647;exitDx=0;exitDy=0;exitPerimeter=0;entryX=0.026;entryY=0.647;entryDx=0;entryDy=0;entryPerimeter=0;dashed=1;endArrow=none;endFill=0;startArrow=classic;startFill=1;" parent="1" source="HY1gGdeRaSTk6mKzonEz-55" target="HY1gGdeRaSTk6mKzonEz-59" edge="1">
          <mxGeometry relative="1" as="geometry">
            <mxPoint x="1462" y="181" as="sourcePoint" />
            <mxPoint x="1619" y="96" as="targetPoint" />
          </mxGeometry>
        </mxCell>
        <mxCell id="HY1gGdeRaSTk6mKzonEz-62" style="rounded=0;orthogonalLoop=1;jettySize=auto;html=1;" parent="1" source="HY1gGdeRaSTk6mKzonEz-55" target="HY1gGdeRaSTk6mKzonEz-56" edge="1">
          <mxGeometry relative="1" as="geometry">
            <mxPoint x="1462" y="209" as="sourcePoint" />
            <mxPoint x="1612" y="243" as="targetPoint" />
          </mxGeometry>
        </mxCell>
        <mxCell id="HY1gGdeRaSTk6mKzonEz-63" value="..." style="text;html=1;align=center;verticalAlign=middle;resizable=0;points=[];autosize=1;strokeColor=none;fillColor=none;fontSize=28;" parent="1" vertex="1">
          <mxGeometry x="1634" y="94" width="50" height="50" as="geometry" />
        </mxCell>
        <mxCell id="HY1gGdeRaSTk6mKzonEz-64" style="rounded=0;orthogonalLoop=1;jettySize=auto;html=1;entryX=1;entryY=0.35;entryDx=0;entryDy=0;entryPerimeter=0;exitX=0.065;exitY=0.767;exitDx=0;exitDy=0;exitPerimeter=0;dashed=1;" parent="1" source="HY1gGdeRaSTk6mKzonEz-58" target="HY1gGdeRaSTk6mKzonEz-55" edge="1">
          <mxGeometry relative="1" as="geometry">
            <mxPoint x="1450" y="76" as="sourcePoint" />
            <mxPoint x="1609" y="76" as="targetPoint" />
          </mxGeometry>
        </mxCell>
        <mxCell id="HY1gGdeRaSTk6mKzonEz-65" style="rounded=0;orthogonalLoop=1;jettySize=auto;html=1;entryX=1;entryY=0.5;entryDx=0;entryDy=0;endArrow=none;endFill=0;startArrow=classic;startFill=1;" parent="1" source="HY1gGdeRaSTk6mKzonEz-59" target="HY1gGdeRaSTk6mKzonEz-55" edge="1">
          <mxGeometry relative="1" as="geometry">
            <mxPoint x="1595" y="186" as="sourcePoint" />
            <mxPoint x="1465" y="184" as="targetPoint" />
          </mxGeometry>
        </mxCell>
        <mxCell id="HY1gGdeRaSTk6mKzonEz-66" value="analyze directory" style="rounded=0;whiteSpace=wrap;html=1;" parent="1" vertex="1">
          <mxGeometry x="1425" y="86" width="110" height="20" as="geometry" />
        </mxCell>
        <mxCell id="HY1gGdeRaSTk6mKzonEz-67" value="ack" style="rounded=0;whiteSpace=wrap;html=1;" parent="1" vertex="1">
          <mxGeometry x="1535" y="124" width="50" height="20" as="geometry" />
        </mxCell>
        <mxCell id="HY1gGdeRaSTk6mKzonEz-68" value="analyze file" style="rounded=0;whiteSpace=wrap;html=1;" parent="1" vertex="1">
          <mxGeometry x="1505" y="226" width="80" height="20" as="geometry" />
        </mxCell>
        <mxCell id="HY1gGdeRaSTk6mKzonEz-69" style="edgeStyle=orthogonalEdgeStyle;rounded=0;orthogonalLoop=1;jettySize=auto;html=1;dashed=1;endArrow=none;endFill=0;startArrow=classic;startFill=1;" parent="1" source="HY1gGdeRaSTk6mKzonEz-54" target="HY1gGdeRaSTk6mKzonEz-55" edge="1">
          <mxGeometry relative="1" as="geometry">
            <mxPoint x="1405" y="446" as="sourcePoint" />
            <mxPoint x="1405" y="236" as="targetPoint" />
            <Array as="points">
              <mxPoint x="1375" y="326" />
              <mxPoint x="1375" y="326" />
            </Array>
          </mxGeometry>
        </mxCell>
        <mxCell id="HY1gGdeRaSTk6mKzonEz-70" style="rounded=0;orthogonalLoop=1;jettySize=auto;html=1;entryX=0.797;entryY=0.935;entryDx=0;entryDy=0;entryPerimeter=0;exitX=-0.003;exitY=0.455;exitDx=0;exitDy=0;exitPerimeter=0;dashed=1;" parent="1" source="HY1gGdeRaSTk6mKzonEz-56" target="HY1gGdeRaSTk6mKzonEz-55" edge="1">
          <mxGeometry relative="1" as="geometry">
            <mxPoint x="1599" y="306" as="sourcePoint" />
            <mxPoint x="1434.0006921099164" y="225.99565556839121" as="targetPoint" />
          </mxGeometry>
        </mxCell>
        <mxCell id="HY1gGdeRaSTk6mKzonEz-71" value="lineCount" style="rounded=0;whiteSpace=wrap;html=1;" parent="1" vertex="1">
          <mxGeometry x="1480" y="264" width="65" height="20" as="geometry" />
        </mxCell>
        <mxCell id="HY1gGdeRaSTk6mKzonEz-72" value="FileAnalyzer" style="ellipse;whiteSpace=wrap;html=1;shadow=1;" parent="1" vertex="1">
          <mxGeometry x="1863" y="266" width="120" height="80" as="geometry" />
        </mxCell>
        <mxCell id="HY1gGdeRaSTk6mKzonEz-73" style="edgeStyle=orthogonalEdgeStyle;rounded=0;orthogonalLoop=1;jettySize=auto;html=1;" parent="1" source="HY1gGdeRaSTk6mKzonEz-74" target="HY1gGdeRaSTk6mKzonEz-54" edge="1">
          <mxGeometry relative="1" as="geometry">
            <Array as="points">
              <mxPoint x="2017" y="82" />
              <mxPoint x="2017" y="452" />
            </Array>
          </mxGeometry>
        </mxCell>
        <mxCell id="HY1gGdeRaSTk6mKzonEz-74" value="DirectoryAnalyzer" style="ellipse;whiteSpace=wrap;html=1;shadow=1;" parent="1" vertex="1">
          <mxGeometry x="1863" y="26" width="120" height="80" as="geometry" />
        </mxCell>
        <mxCell id="HY1gGdeRaSTk6mKzonEz-75" value="DirectoryAnalyzer" style="ellipse;whiteSpace=wrap;html=1;shadow=1;" parent="1" vertex="1">
          <mxGeometry x="1863" y="146" width="120" height="80" as="geometry" />
        </mxCell>
        <mxCell id="HY1gGdeRaSTk6mKzonEz-76" style="rounded=0;orthogonalLoop=1;jettySize=auto;html=1;entryX=0;entryY=0.5;entryDx=0;entryDy=0;" parent="1" target="HY1gGdeRaSTk6mKzonEz-74" edge="1">
          <mxGeometry relative="1" as="geometry">
            <mxPoint x="1704" y="159" as="sourcePoint" />
            <mxPoint x="1669" y="236" as="targetPoint" />
          </mxGeometry>
        </mxCell>
        <mxCell id="HY1gGdeRaSTk6mKzonEz-77" style="rounded=0;orthogonalLoop=1;jettySize=auto;html=1;exitX=0.985;exitY=0.647;exitDx=0;exitDy=0;exitPerimeter=0;entryX=0.026;entryY=0.647;entryDx=0;entryDy=0;entryPerimeter=0;dashed=1;endArrow=none;endFill=0;startArrow=classic;startFill=1;" parent="1" target="HY1gGdeRaSTk6mKzonEz-75" edge="1">
          <mxGeometry relative="1" as="geometry">
            <mxPoint x="1717" y="198" as="sourcePoint" />
            <mxPoint x="1883" y="96" as="targetPoint" />
          </mxGeometry>
        </mxCell>
        <mxCell id="HY1gGdeRaSTk6mKzonEz-78" style="rounded=0;orthogonalLoop=1;jettySize=auto;html=1;" parent="1" target="HY1gGdeRaSTk6mKzonEz-72" edge="1">
          <mxGeometry relative="1" as="geometry">
            <mxPoint x="1709" y="208" as="sourcePoint" />
            <mxPoint x="1876" y="243" as="targetPoint" />
          </mxGeometry>
        </mxCell>
        <mxCell id="HY1gGdeRaSTk6mKzonEz-79" value="..." style="text;html=1;align=center;verticalAlign=middle;resizable=0;points=[];autosize=1;strokeColor=none;fillColor=none;fontSize=28;" parent="1" vertex="1">
          <mxGeometry x="1898" y="94" width="50" height="50" as="geometry" />
        </mxCell>
        <mxCell id="HY1gGdeRaSTk6mKzonEz-80" style="rounded=0;orthogonalLoop=1;jettySize=auto;html=1;entryX=1;entryY=0.35;entryDx=0;entryDy=0;entryPerimeter=0;exitX=0.065;exitY=0.767;exitDx=0;exitDy=0;exitPerimeter=0;dashed=1;" parent="1" source="HY1gGdeRaSTk6mKzonEz-74" edge="1">
          <mxGeometry relative="1" as="geometry">
            <mxPoint x="1714" y="76" as="sourcePoint" />
            <mxPoint x="1719" y="174" as="targetPoint" />
          </mxGeometry>
        </mxCell>
        <mxCell id="HY1gGdeRaSTk6mKzonEz-81" style="rounded=0;orthogonalLoop=1;jettySize=auto;html=1;entryX=1;entryY=0.5;entryDx=0;entryDy=0;endArrow=none;endFill=0;startArrow=classic;startFill=1;" parent="1" source="HY1gGdeRaSTk6mKzonEz-75" edge="1">
          <mxGeometry relative="1" as="geometry">
            <mxPoint x="1859" y="186" as="sourcePoint" />
            <mxPoint x="1719" y="186" as="targetPoint" />
          </mxGeometry>
        </mxCell>
        <mxCell id="HY1gGdeRaSTk6mKzonEz-82" style="rounded=0;orthogonalLoop=1;jettySize=auto;html=1;entryX=0.797;entryY=0.935;entryDx=0;entryDy=0;entryPerimeter=0;exitX=-0.003;exitY=0.455;exitDx=0;exitDy=0;exitPerimeter=0;dashed=1;" parent="1" source="HY1gGdeRaSTk6mKzonEz-72" edge="1">
          <mxGeometry relative="1" as="geometry">
            <mxPoint x="1863" y="306" as="sourcePoint" />
            <mxPoint x="1695" y="221" as="targetPoint" />
          </mxGeometry>
        </mxCell>
        <mxCell id="HY1gGdeRaSTk6mKzonEz-83" value="LeaderboardActor" style="ellipse;whiteSpace=wrap;html=1;shadow=1;" parent="1" vertex="1">
          <mxGeometry x="2037" y="422" width="120" height="80" as="geometry" />
        </mxCell>
        <mxCell id="HY1gGdeRaSTk6mKzonEz-85" value="report" style="rounded=0;whiteSpace=wrap;html=1;" parent="1" vertex="1">
          <mxGeometry x="2008" y="118" width="50" height="20" as="geometry" />
        </mxCell>
        <mxCell id="HY1gGdeRaSTk6mKzonEz-86" value="ack" style="rounded=0;whiteSpace=wrap;html=1;" parent="1" vertex="1">
          <mxGeometry x="1330" y="302" width="50" height="20" as="geometry" />
        </mxCell>
        <mxCell id="HY1gGdeRaSTk6mKzonEz-95" value="" style="edgeStyle=orthogonalEdgeStyle;rounded=0;orthogonalLoop=1;jettySize=auto;html=1;" parent="1" source="HY1gGdeRaSTk6mKzonEz-89" target="HY1gGdeRaSTk6mKzonEz-90" edge="1">
          <mxGeometry relative="1" as="geometry" />
        </mxCell>
        <mxCell id="HY1gGdeRaSTk6mKzonEz-96" style="edgeStyle=orthogonalEdgeStyle;rounded=0;orthogonalLoop=1;jettySize=auto;html=1;" parent="1" source="HY1gGdeRaSTk6mKzonEz-89" target="HY1gGdeRaSTk6mKzonEz-54" edge="1">
          <mxGeometry relative="1" as="geometry">
            <Array as="points">
              <mxPoint x="1744" y="642" />
              <mxPoint x="1377" y="642" />
            </Array>
          </mxGeometry>
        </mxCell>
        <mxCell id="HY1gGdeRaSTk6mKzonEz-97" style="edgeStyle=orthogonalEdgeStyle;rounded=0;orthogonalLoop=1;jettySize=auto;html=1;" parent="1" source="HY1gGdeRaSTk6mKzonEz-89" target="HY1gGdeRaSTk6mKzonEz-83" edge="1">
          <mxGeometry relative="1" as="geometry">
            <Array as="points">
              <mxPoint x="1744" y="642" />
              <mxPoint x="2117" y="642" />
            </Array>
          </mxGeometry>
        </mxCell>
        <mxCell id="HY1gGdeRaSTk6mKzonEz-89" value="Manager" style="ellipse;whiteSpace=wrap;html=1;shadow=1;" parent="1" vertex="1">
          <mxGeometry x="1684" y="722" width="120" height="80" as="geometry" />
        </mxCell>
        <mxCell id="HY1gGdeRaSTk6mKzonEz-102" value="" style="edgeStyle=orthogonalEdgeStyle;rounded=0;orthogonalLoop=1;jettySize=auto;html=1;" parent="1" source="HY1gGdeRaSTk6mKzonEz-90" target="HY1gGdeRaSTk6mKzonEz-100" edge="1">
          <mxGeometry relative="1" as="geometry" />
        </mxCell>
        <mxCell id="HY1gGdeRaSTk6mKzonEz-90" value="ViewActor" style="ellipse;whiteSpace=wrap;html=1;shadow=1;" parent="1" vertex="1">
          <mxGeometry x="1684" y="526" width="120" height="80" as="geometry" />
        </mxCell>
        <mxCell id="HY1gGdeRaSTk6mKzonEz-92" style="edgeStyle=orthogonalEdgeStyle;rounded=0;orthogonalLoop=1;jettySize=auto;html=1;" parent="1" source="HY1gGdeRaSTk6mKzonEz-83" target="HY1gGdeRaSTk6mKzonEz-90" edge="1">
          <mxGeometry relative="1" as="geometry">
            <mxPoint x="1405" y="526" as="sourcePoint" />
            <mxPoint x="1405" y="642" as="targetPoint" />
            <Array as="points">
              <mxPoint x="2087" y="566" />
            </Array>
          </mxGeometry>
        </mxCell>
        <mxCell id="HY1gGdeRaSTk6mKzonEz-93" style="edgeStyle=orthogonalEdgeStyle;rounded=0;orthogonalLoop=1;jettySize=auto;html=1;" parent="1" source="HY1gGdeRaSTk6mKzonEz-74" target="HY1gGdeRaSTk6mKzonEz-83" edge="1">
          <mxGeometry relative="1" as="geometry">
            <Array as="points">
              <mxPoint x="2097" y="52" />
            </Array>
            <mxPoint x="1988" y="92" as="sourcePoint" />
            <mxPoint x="2127" y="612" as="targetPoint" />
          </mxGeometry>
        </mxCell>
        <mxCell id="HY1gGdeRaSTk6mKzonEz-94" value="Leaderboard" style="rounded=0;whiteSpace=wrap;html=1;" parent="1" vertex="1">
          <mxGeometry x="2087" y="86" width="90" height="20" as="geometry" />
        </mxCell>
        <mxCell id="HY1gGdeRaSTk6mKzonEz-98" value="spawn" style="rounded=0;whiteSpace=wrap;html=1;" parent="1" vertex="1">
          <mxGeometry x="1737" y="671" width="50" height="20" as="geometry" />
        </mxCell>
        <mxCell id="HY1gGdeRaSTk6mKzonEz-100" value="GUI" style="rounded=0;whiteSpace=wrap;html=1;shadow=1;" parent="1" vertex="1">
          <mxGeometry x="1710" y="471" width="68" height="30" as="geometry" />
        </mxCell>
        <mxCell id="HY1gGdeRaSTk6mKzonEz-107" style="edgeStyle=orthogonalEdgeStyle;rounded=0;orthogonalLoop=1;jettySize=auto;html=1;curved=1;" parent="1" source="HY1gGdeRaSTk6mKzonEz-105" target="HY1gGdeRaSTk6mKzonEz-106" edge="1">
          <mxGeometry relative="1" as="geometry">
            <Array as="points">
              <mxPoint x="2720" y="230" />
              <mxPoint x="2890" y="230" />
            </Array>
          </mxGeometry>
        </mxCell>
        <mxCell id="HY1gGdeRaSTk6mKzonEz-108" value="Start" style="edgeLabel;html=1;align=center;verticalAlign=middle;resizable=0;points=[];" parent="HY1gGdeRaSTk6mKzonEz-107" vertex="1" connectable="0">
          <mxGeometry x="-0.0578" y="1" relative="1" as="geometry">
            <mxPoint as="offset" />
          </mxGeometry>
        </mxCell>
        <mxCell id="HY1gGdeRaSTk6mKzonEz-105" value="Idle" style="ellipse;whiteSpace=wrap;html=1;shadow=1;" parent="1" vertex="1">
          <mxGeometry x="2680" y="266" width="80" height="64" as="geometry" />
        </mxCell>
        <mxCell id="HY1gGdeRaSTk6mKzonEz-111" style="edgeStyle=orthogonalEdgeStyle;rounded=0;orthogonalLoop=1;jettySize=auto;html=1;curved=1;" parent="1" source="HY1gGdeRaSTk6mKzonEz-106" target="HY1gGdeRaSTk6mKzonEz-105" edge="1">
          <mxGeometry relative="1" as="geometry">
            <Array as="points">
              <mxPoint x="2890" y="370" />
              <mxPoint x="2720" y="370" />
            </Array>
          </mxGeometry>
        </mxCell>
        <mxCell id="HY1gGdeRaSTk6mKzonEz-112" value="Stop" style="edgeLabel;html=1;align=center;verticalAlign=middle;resizable=0;points=[];" parent="HY1gGdeRaSTk6mKzonEz-111" vertex="1" connectable="0">
          <mxGeometry x="0.0152" y="-1" relative="1" as="geometry">
            <mxPoint y="-9" as="offset" />
          </mxGeometry>
        </mxCell>
        <mxCell id="HY1gGdeRaSTk6mKzonEz-113" value="Complete" style="edgeLabel;html=1;align=center;verticalAlign=middle;resizable=0;points=[];" parent="HY1gGdeRaSTk6mKzonEz-111" vertex="1" connectable="0">
          <mxGeometry x="-0.1835" y="-4" relative="1" as="geometry">
            <mxPoint x="-25" y="14" as="offset" />
          </mxGeometry>
        </mxCell>
        <mxCell id="HY1gGdeRaSTk6mKzonEz-106" value="Managing" style="ellipse;whiteSpace=wrap;html=1;shadow=1;" parent="1" vertex="1">
          <mxGeometry x="2850" y="266" width="80" height="64" as="geometry" />
        </mxCell>
        <mxCell id="HY1gGdeRaSTk6mKzonEz-117" value="Manager" style="text;html=1;align=center;verticalAlign=middle;resizable=0;points=[];autosize=1;strokeColor=default;fillColor=none;perimeterSpacing=2;fontSize=11;" parent="1" vertex="1">
          <mxGeometry x="2650" y="201" width="70" height="30" as="geometry" />
        </mxCell>
        <mxCell id="HY1gGdeRaSTk6mKzonEz-122" style="edgeStyle=orthogonalEdgeStyle;rounded=0;orthogonalLoop=1;jettySize=auto;html=1;" parent="1" source="HY1gGdeRaSTk6mKzonEz-119" target="HY1gGdeRaSTk6mKzonEz-114" edge="1">
          <mxGeometry relative="1" as="geometry">
            <Array as="points">
              <mxPoint x="2920" y="160" />
              <mxPoint x="2920" y="160" />
            </Array>
          </mxGeometry>
        </mxCell>
        <mxCell id="HY1gGdeRaSTk6mKzonEz-123" value="Complete" style="edgeLabel;html=1;align=center;verticalAlign=middle;resizable=0;points=[];" parent="HY1gGdeRaSTk6mKzonEz-122" vertex="1" connectable="0">
          <mxGeometry x="-0.2923" y="1" relative="1" as="geometry">
            <mxPoint y="10" as="offset" />
          </mxGeometry>
        </mxCell>
        <mxCell id="HY1gGdeRaSTk6mKzonEz-119" value="SourceAnalyzer" style="ellipse;whiteSpace=wrap;html=1;fontSize=9;shadow=1;" parent="1" vertex="1">
          <mxGeometry x="2850" y="74" width="80" height="64" as="geometry" />
        </mxCell>
        <mxCell id="HY1gGdeRaSTk6mKzonEz-129" style="edgeStyle=orthogonalEdgeStyle;rounded=0;orthogonalLoop=1;jettySize=auto;html=1;" parent="1" source="HY1gGdeRaSTk6mKzonEz-128" target="HY1gGdeRaSTk6mKzonEz-114" edge="1">
          <mxGeometry relative="1" as="geometry">
            <Array as="points">
              <mxPoint x="2720" y="180" />
              <mxPoint x="2720" y="180" />
            </Array>
          </mxGeometry>
        </mxCell>
        <mxCell id="HY1gGdeRaSTk6mKzonEz-130" value="Start&lt;br&gt;Stop" style="edgeLabel;html=1;align=center;verticalAlign=middle;resizable=0;points=[];" parent="HY1gGdeRaSTk6mKzonEz-129" vertex="1" connectable="0">
          <mxGeometry x="-0.3141" relative="1" as="geometry">
            <mxPoint x="-1" y="9" as="offset" />
          </mxGeometry>
        </mxCell>
        <mxCell id="HY1gGdeRaSTk6mKzonEz-128" value="GUI" style="rounded=0;whiteSpace=wrap;html=1;shadow=1;" parent="1" vertex="1">
          <mxGeometry x="2685" y="86" width="70" height="40" as="geometry" />
        </mxCell>
        <mxCell id="HY1gGdeRaSTk6mKzonEz-179" value="" style="edgeStyle=orthogonalEdgeStyle;rounded=0;orthogonalLoop=1;jettySize=auto;html=1;" parent="1" source="HY1gGdeRaSTk6mKzonEz-153" target="HY1gGdeRaSTk6mKzonEz-178" edge="1">
          <mxGeometry relative="1" as="geometry" />
        </mxCell>
        <mxCell id="HY1gGdeRaSTk6mKzonEz-180" value="UpdateLeaderboard" style="edgeLabel;html=1;align=center;verticalAlign=middle;resizable=0;points=[];" parent="HY1gGdeRaSTk6mKzonEz-179" vertex="1" connectable="0">
          <mxGeometry x="-0.2567" y="1" relative="1" as="geometry">
            <mxPoint x="-1" y="1" as="offset" />
          </mxGeometry>
        </mxCell>
        <mxCell id="HY1gGdeRaSTk6mKzonEz-153" value="" style="rounded=0;whiteSpace=wrap;html=1;" parent="1" vertex="1">
          <mxGeometry x="3110" y="202" width="320" height="199" as="geometry" />
        </mxCell>
        <mxCell id="HY1gGdeRaSTk6mKzonEz-154" style="edgeStyle=orthogonalEdgeStyle;rounded=0;orthogonalLoop=1;jettySize=auto;html=1;curved=1;" parent="1" source="HY1gGdeRaSTk6mKzonEz-156" target="HY1gGdeRaSTk6mKzonEz-160" edge="1">
          <mxGeometry relative="1" as="geometry">
            <Array as="points">
              <mxPoint x="3270" y="300" />
              <mxPoint x="3270" y="300" />
            </Array>
          </mxGeometry>
        </mxCell>
        <mxCell id="HY1gGdeRaSTk6mKzonEz-155" value="Init" style="edgeLabel;html=1;align=center;verticalAlign=middle;resizable=0;points=[];" parent="HY1gGdeRaSTk6mKzonEz-154" vertex="1" connectable="0">
          <mxGeometry x="-0.0578" y="1" relative="1" as="geometry">
            <mxPoint as="offset" />
          </mxGeometry>
        </mxCell>
        <mxCell id="HY1gGdeRaSTk6mKzonEz-156" value="Idle" style="ellipse;whiteSpace=wrap;html=1;shadow=1;" parent="1" vertex="1">
          <mxGeometry x="3145" y="268.5" width="80" height="64" as="geometry" />
        </mxCell>
        <mxCell id="HY1gGdeRaSTk6mKzonEz-160" value="Working" style="ellipse;whiteSpace=wrap;html=1;shadow=1;" parent="1" vertex="1">
          <mxGeometry x="3315" y="268.5" width="80" height="64" as="geometry" />
        </mxCell>
        <mxCell id="HY1gGdeRaSTk6mKzonEz-161" value="LeaderboardActor" style="text;html=1;align=center;verticalAlign=middle;resizable=0;points=[];autosize=1;strokeColor=default;fillColor=none;perimeterSpacing=2;fontSize=11;" parent="1" vertex="1">
          <mxGeometry x="3110" y="202" width="110" height="30" as="geometry" />
        </mxCell>
        <mxCell id="HY1gGdeRaSTk6mKzonEz-162" style="edgeStyle=orthogonalEdgeStyle;rounded=0;orthogonalLoop=1;jettySize=auto;html=1;" parent="1" source="HY1gGdeRaSTk6mKzonEz-164" target="HY1gGdeRaSTk6mKzonEz-153" edge="1">
          <mxGeometry relative="1" as="geometry">
            <Array as="points">
              <mxPoint x="3350" y="170" />
              <mxPoint x="3350" y="170" />
            </Array>
          </mxGeometry>
        </mxCell>
        <mxCell id="HY1gGdeRaSTk6mKzonEz-163" value="Init" style="edgeLabel;html=1;align=center;verticalAlign=middle;resizable=0;points=[];" parent="HY1gGdeRaSTk6mKzonEz-162" vertex="1" connectable="0">
          <mxGeometry x="-0.2923" y="1" relative="1" as="geometry">
            <mxPoint y="10" as="offset" />
          </mxGeometry>
        </mxCell>
        <mxCell id="HY1gGdeRaSTk6mKzonEz-164" value="SourceAnalyzer" style="ellipse;whiteSpace=wrap;html=1;fontSize=9;shadow=1;" parent="1" vertex="1">
          <mxGeometry x="3310" y="74" width="80" height="64" as="geometry" />
        </mxCell>
        <mxCell id="HY1gGdeRaSTk6mKzonEz-165" style="edgeStyle=orthogonalEdgeStyle;rounded=0;orthogonalLoop=1;jettySize=auto;html=1;" parent="1" source="HY1gGdeRaSTk6mKzonEz-177" target="HY1gGdeRaSTk6mKzonEz-153" edge="1">
          <mxGeometry relative="1" as="geometry">
            <Array as="points">
              <mxPoint x="3180" y="180" />
              <mxPoint x="3180" y="180" />
            </Array>
            <mxPoint x="3180" y="126" as="sourcePoint" />
          </mxGeometry>
        </mxCell>
        <mxCell id="HY1gGdeRaSTk6mKzonEz-166" value="Update" style="edgeLabel;html=1;align=center;verticalAlign=middle;resizable=0;points=[];" parent="HY1gGdeRaSTk6mKzonEz-165" vertex="1" connectable="0">
          <mxGeometry x="-0.3141" relative="1" as="geometry">
            <mxPoint x="-1" y="9" as="offset" />
          </mxGeometry>
        </mxCell>
        <mxCell id="HY1gGdeRaSTk6mKzonEz-173" style="edgeStyle=orthogonalEdgeStyle;rounded=0;orthogonalLoop=1;jettySize=auto;html=1;curved=1;" parent="1" source="HY1gGdeRaSTk6mKzonEz-160" target="HY1gGdeRaSTk6mKzonEz-160" edge="1">
          <mxGeometry relative="1" as="geometry">
            <Array as="points">
              <mxPoint x="3383" y="370" />
              <mxPoint x="3327" y="370" />
            </Array>
            <mxPoint x="3383.2642712474617" y="322.12741699796936" as="sourcePoint" />
            <mxPoint x="3326.6957287525383" y="322.127416997969" as="targetPoint" />
          </mxGeometry>
        </mxCell>
        <mxCell id="HY1gGdeRaSTk6mKzonEz-174" value="Init" style="edgeLabel;html=1;align=center;verticalAlign=middle;resizable=0;points=[];" parent="HY1gGdeRaSTk6mKzonEz-173" vertex="1" connectable="0">
          <mxGeometry x="-0.0578" y="1" relative="1" as="geometry">
            <mxPoint x="-4" as="offset" />
          </mxGeometry>
        </mxCell>
        <mxCell id="HY1gGdeRaSTk6mKzonEz-175" style="edgeStyle=orthogonalEdgeStyle;rounded=0;orthogonalLoop=1;jettySize=auto;html=1;curved=1;" parent="1" source="HY1gGdeRaSTk6mKzonEz-160" target="HY1gGdeRaSTk6mKzonEz-160" edge="1">
          <mxGeometry relative="1" as="geometry">
            <Array as="points">
              <mxPoint x="3380" y="230" />
              <mxPoint x="3330" y="230" />
            </Array>
            <mxPoint x="3393" y="333" as="sourcePoint" />
            <mxPoint x="3337" y="333" as="targetPoint" />
          </mxGeometry>
        </mxCell>
        <mxCell id="HY1gGdeRaSTk6mKzonEz-176" value="Update" style="edgeLabel;html=1;align=center;verticalAlign=middle;resizable=0;points=[];fontSize=11;" parent="HY1gGdeRaSTk6mKzonEz-175" vertex="1" connectable="0">
          <mxGeometry x="-0.0578" y="1" relative="1" as="geometry">
            <mxPoint x="-4" as="offset" />
          </mxGeometry>
        </mxCell>
        <mxCell id="HY1gGdeRaSTk6mKzonEz-177" value="DirectoryAnalyzer" style="ellipse;whiteSpace=wrap;html=1;fontSize=9;shadow=1;" parent="1" vertex="1">
          <mxGeometry x="3140" y="76" width="80" height="64" as="geometry" />
        </mxCell>
        <mxCell id="HY1gGdeRaSTk6mKzonEz-178" value="ViewActor" style="ellipse;whiteSpace=wrap;html=1;fontSize=9;shadow=1;" parent="1" vertex="1">
          <mxGeometry x="3230" y="462" width="80" height="64" as="geometry" />
        </mxCell>
        <mxCell id="HY1gGdeRaSTk6mKzonEz-191" style="edgeStyle=orthogonalEdgeStyle;rounded=0;orthogonalLoop=1;jettySize=auto;html=1;entryX=0.5;entryY=1;entryDx=0;entryDy=0;" parent="1" source="HY1gGdeRaSTk6mKzonEz-181" target="HY1gGdeRaSTk6mKzonEz-184" edge="1">
          <mxGeometry relative="1" as="geometry" />
        </mxCell>
        <mxCell id="HY1gGdeRaSTk6mKzonEz-192" style="edgeStyle=orthogonalEdgeStyle;rounded=0;orthogonalLoop=1;jettySize=auto;html=1;" parent="1" source="HY1gGdeRaSTk6mKzonEz-181" target="HY1gGdeRaSTk6mKzonEz-182" edge="1">
          <mxGeometry relative="1" as="geometry" />
        </mxCell>
        <mxCell id="HY1gGdeRaSTk6mKzonEz-193" value="Spawn" style="edgeLabel;html=1;align=center;verticalAlign=middle;resizable=0;points=[];" parent="HY1gGdeRaSTk6mKzonEz-192" vertex="1" connectable="0">
          <mxGeometry x="-0.0378" y="-1" relative="1" as="geometry">
            <mxPoint x="11" y="-2" as="offset" />
          </mxGeometry>
        </mxCell>
        <mxCell id="HY1gGdeRaSTk6mKzonEz-199" style="rounded=0;orthogonalLoop=1;jettySize=auto;html=1;" parent="1" source="HY1gGdeRaSTk6mKzonEz-181" target="HY1gGdeRaSTk6mKzonEz-182" edge="1">
          <mxGeometry relative="1" as="geometry">
            <mxPoint x="2851" y="635" as="targetPoint" />
          </mxGeometry>
        </mxCell>
        <mxCell id="HY1gGdeRaSTk6mKzonEz-200" value="File" style="edgeLabel;html=1;align=center;verticalAlign=middle;resizable=0;points=[];" parent="HY1gGdeRaSTk6mKzonEz-199" vertex="1" connectable="0">
          <mxGeometry x="0.0895" relative="1" as="geometry">
            <mxPoint x="-5" y="-5" as="offset" />
          </mxGeometry>
        </mxCell>
        <mxCell id="HY1gGdeRaSTk6mKzonEz-202" value="" style="rounded=0;orthogonalLoop=1;jettySize=auto;html=1;entryX=1;entryY=0.5;entryDx=0;entryDy=0;" parent="1" source="HY1gGdeRaSTk6mKzonEz-181" target="HY1gGdeRaSTk6mKzonEz-201" edge="1">
          <mxGeometry relative="1" as="geometry" />
        </mxCell>
        <mxCell id="HY1gGdeRaSTk6mKzonEz-203" value="Report" style="edgeLabel;html=1;align=center;verticalAlign=middle;resizable=0;points=[];" parent="HY1gGdeRaSTk6mKzonEz-202" vertex="1" connectable="0">
          <mxGeometry x="0.0406" y="-1" relative="1" as="geometry">
            <mxPoint as="offset" />
          </mxGeometry>
        </mxCell>
        <mxCell id="HY1gGdeRaSTk6mKzonEz-207" style="rounded=0;orthogonalLoop=1;jettySize=auto;html=1;entryX=1;entryY=0.5;entryDx=0;entryDy=0;" parent="1" source="HY1gGdeRaSTk6mKzonEz-181" target="HY1gGdeRaSTk6mKzonEz-204" edge="1">
          <mxGeometry relative="1" as="geometry" />
        </mxCell>
        <mxCell id="HY1gGdeRaSTk6mKzonEz-208" value="Leaderboard" style="edgeLabel;html=1;align=center;verticalAlign=middle;resizable=0;points=[];" parent="HY1gGdeRaSTk6mKzonEz-207" vertex="1" connectable="0">
          <mxGeometry x="0.0813" y="-1" relative="1" as="geometry">
            <mxPoint x="5" as="offset" />
          </mxGeometry>
        </mxCell>
        <mxCell id="HY1gGdeRaSTk6mKzonEz-181" value="&lt;i&gt;[parent]&lt;/i&gt;&lt;br&gt;DirectoryAnalyzer&lt;br&gt;" style="ellipse;whiteSpace=wrap;html=1;fontSize=9;shadow=1;" parent="1" vertex="1">
          <mxGeometry x="2670" y="543" width="80" height="64" as="geometry" />
        </mxCell>
        <mxCell id="HY1gGdeRaSTk6mKzonEz-197" style="rounded=0;orthogonalLoop=1;jettySize=auto;html=1;dashed=1;entryX=0.712;entryY=0.958;entryDx=0;entryDy=0;exitX=-0.002;exitY=0.683;exitDx=0;exitDy=0;entryPerimeter=0;exitPerimeter=0;" parent="1" source="HY1gGdeRaSTk6mKzonEz-182" target="HY1gGdeRaSTk6mKzonEz-181" edge="1">
          <mxGeometry relative="1" as="geometry" />
        </mxCell>
        <mxCell id="HY1gGdeRaSTk6mKzonEz-198" value="LineCount" style="edgeLabel;html=1;align=center;verticalAlign=middle;resizable=0;points=[];" parent="HY1gGdeRaSTk6mKzonEz-197" vertex="1" connectable="0">
          <mxGeometry x="-0.0346" relative="1" as="geometry">
            <mxPoint x="-9" as="offset" />
          </mxGeometry>
        </mxCell>
        <mxCell id="HY1gGdeRaSTk6mKzonEz-182" value="FileAnalyzer" style="ellipse;whiteSpace=wrap;html=1;fontSize=9;shadow=1;" parent="1" vertex="1">
          <mxGeometry x="2850" y="620" width="80" height="64" as="geometry" />
        </mxCell>
        <mxCell id="HY1gGdeRaSTk6mKzonEz-195" style="rounded=0;orthogonalLoop=1;jettySize=auto;html=1;entryX=1;entryY=0;entryDx=0;entryDy=0;dashed=1;exitX=0;exitY=0.5;exitDx=0;exitDy=0;" parent="1" source="HY1gGdeRaSTk6mKzonEz-184" target="HY1gGdeRaSTk6mKzonEz-181" edge="1">
          <mxGeometry relative="1" as="geometry" />
        </mxCell>
        <mxCell id="HY1gGdeRaSTk6mKzonEz-196" value="Ack" style="edgeLabel;html=1;align=center;verticalAlign=middle;resizable=0;points=[];" parent="HY1gGdeRaSTk6mKzonEz-195" vertex="1" connectable="0">
          <mxGeometry x="-0.1648" y="2" relative="1" as="geometry">
            <mxPoint x="-5" y="-3" as="offset" />
          </mxGeometry>
        </mxCell>
        <mxCell id="HY1gGdeRaSTk6mKzonEz-184" value="&lt;i&gt;[child]&lt;/i&gt;&lt;br&gt;DirectoryAnalyzer" style="ellipse;whiteSpace=wrap;html=1;fontSize=9;shadow=1;" parent="1" vertex="1">
          <mxGeometry x="2850" y="470" width="80" height="64" as="geometry" />
        </mxCell>
        <mxCell id="HY1gGdeRaSTk6mKzonEz-186" value="1" style="text;html=1;align=center;verticalAlign=middle;resizable=0;points=[];autosize=1;strokeColor=none;fillColor=none;" parent="1" vertex="1">
          <mxGeometry x="2864" y="596" width="30" height="30" as="geometry" />
        </mxCell>
        <mxCell id="HY1gGdeRaSTk6mKzonEz-187" value="N" style="text;html=1;align=center;verticalAlign=middle;resizable=0;points=[];autosize=1;strokeColor=none;fillColor=none;" parent="1" vertex="1">
          <mxGeometry x="2862" y="526" width="30" height="30" as="geometry" />
        </mxCell>
        <mxCell id="HY1gGdeRaSTk6mKzonEz-277" style="rounded=0;orthogonalLoop=1;jettySize=auto;html=1;" parent="1" source="HY1gGdeRaSTk6mKzonEz-201" target="HY1gGdeRaSTk6mKzonEz-275" edge="1">
          <mxGeometry relative="1" as="geometry" />
        </mxCell>
        <mxCell id="HY1gGdeRaSTk6mKzonEz-279" value="Report" style="edgeLabel;html=1;align=center;verticalAlign=middle;resizable=0;points=[];" parent="HY1gGdeRaSTk6mKzonEz-277" vertex="1" connectable="0">
          <mxGeometry x="-0.0856" y="1" relative="1" as="geometry">
            <mxPoint as="offset" />
          </mxGeometry>
        </mxCell>
        <mxCell id="HY1gGdeRaSTk6mKzonEz-201" value="SourceAnalyzer" style="ellipse;whiteSpace=wrap;html=1;fontSize=9;shadow=1;" parent="1" vertex="1">
          <mxGeometry x="2500" y="620" width="80" height="64" as="geometry" />
        </mxCell>
        <mxCell id="HY1gGdeRaSTk6mKzonEz-276" style="rounded=0;orthogonalLoop=1;jettySize=auto;html=1;" parent="1" source="HY1gGdeRaSTk6mKzonEz-204" target="HY1gGdeRaSTk6mKzonEz-275" edge="1">
          <mxGeometry relative="1" as="geometry" />
        </mxCell>
        <mxCell id="HY1gGdeRaSTk6mKzonEz-278" value="Leaderboard" style="edgeLabel;html=1;align=center;verticalAlign=middle;resizable=0;points=[];" parent="HY1gGdeRaSTk6mKzonEz-276" vertex="1" connectable="0">
          <mxGeometry x="0.0532" y="1" relative="1" as="geometry">
            <mxPoint x="12" y="-6" as="offset" />
          </mxGeometry>
        </mxCell>
        <mxCell id="HY1gGdeRaSTk6mKzonEz-204" value="LeaderboardActor" style="ellipse;whiteSpace=wrap;html=1;fontSize=9;shadow=1;" parent="1" vertex="1">
          <mxGeometry x="2500" y="470" width="80" height="64" as="geometry" />
        </mxCell>
        <mxCell id="HY1gGdeRaSTk6mKzonEz-209" style="edgeStyle=orthogonalEdgeStyle;rounded=0;orthogonalLoop=1;jettySize=auto;html=1;" parent="1" target="HY1gGdeRaSTk6mKzonEz-212" edge="1">
          <mxGeometry relative="1" as="geometry">
            <Array as="points">
              <mxPoint x="1417.5" y="1292" />
              <mxPoint x="1417.5" y="1292" />
            </Array>
            <mxPoint x="1417.5294117647059" y="1404.2945764917336" as="sourcePoint" />
          </mxGeometry>
        </mxCell>
        <mxCell id="HY1gGdeRaSTk6mKzonEz-212" value="DirectoryAnalyzer" style="ellipse;whiteSpace=wrap;html=1;shadow=1;" parent="1" vertex="1">
          <mxGeometry x="1337.5" y="1112" width="120" height="80" as="geometry" />
        </mxCell>
        <mxCell id="HY1gGdeRaSTk6mKzonEz-213" value="FileAnalyzer" style="ellipse;whiteSpace=wrap;html=1;shadow=1;" parent="1" vertex="1">
          <mxGeometry x="1601.5" y="1232" width="120" height="80" as="geometry" />
        </mxCell>
        <mxCell id="HY1gGdeRaSTk6mKzonEz-214" value="" style="endArrow=classic;html=1;rounded=0;" parent="1" target="HY1gGdeRaSTk6mKzonEz-246" edge="1">
          <mxGeometry width="50" height="50" relative="1" as="geometry">
            <mxPoint x="1572" y="1490" as="sourcePoint" />
            <mxPoint x="1549.5" y="1675.31" as="targetPoint" />
          </mxGeometry>
        </mxCell>
        <mxCell id="HY1gGdeRaSTk6mKzonEz-215" value="DirectoryAnalyzer" style="ellipse;whiteSpace=wrap;html=1;shadow=1;" parent="1" vertex="1">
          <mxGeometry x="1601.5" y="992" width="120" height="80" as="geometry" />
        </mxCell>
        <mxCell id="HY1gGdeRaSTk6mKzonEz-216" value="DirectoryAnalyzer" style="ellipse;whiteSpace=wrap;html=1;shadow=1;" parent="1" vertex="1">
          <mxGeometry x="1601.5" y="1112" width="120" height="80" as="geometry" />
        </mxCell>
        <mxCell id="HY1gGdeRaSTk6mKzonEz-217" style="rounded=0;orthogonalLoop=1;jettySize=auto;html=1;entryX=0;entryY=0.5;entryDx=0;entryDy=0;" parent="1" source="HY1gGdeRaSTk6mKzonEz-212" target="HY1gGdeRaSTk6mKzonEz-215" edge="1">
          <mxGeometry relative="1" as="geometry">
            <mxPoint x="1407.5" y="1342" as="sourcePoint" />
            <mxPoint x="1407.5" y="1202" as="targetPoint" />
          </mxGeometry>
        </mxCell>
        <mxCell id="HY1gGdeRaSTk6mKzonEz-218" style="rounded=0;orthogonalLoop=1;jettySize=auto;html=1;exitX=0.985;exitY=0.647;exitDx=0;exitDy=0;exitPerimeter=0;entryX=0.026;entryY=0.647;entryDx=0;entryDy=0;entryPerimeter=0;dashed=1;endArrow=none;endFill=0;startArrow=classic;startFill=1;" parent="1" source="HY1gGdeRaSTk6mKzonEz-212" target="HY1gGdeRaSTk6mKzonEz-216" edge="1">
          <mxGeometry relative="1" as="geometry">
            <mxPoint x="1464.5" y="1147" as="sourcePoint" />
            <mxPoint x="1621.5" y="1062" as="targetPoint" />
          </mxGeometry>
        </mxCell>
        <mxCell id="HY1gGdeRaSTk6mKzonEz-219" style="rounded=0;orthogonalLoop=1;jettySize=auto;html=1;" parent="1" source="HY1gGdeRaSTk6mKzonEz-212" target="HY1gGdeRaSTk6mKzonEz-213" edge="1">
          <mxGeometry relative="1" as="geometry">
            <mxPoint x="1464.5" y="1175" as="sourcePoint" />
            <mxPoint x="1614.5" y="1209" as="targetPoint" />
          </mxGeometry>
        </mxCell>
        <mxCell id="HY1gGdeRaSTk6mKzonEz-220" value="..." style="text;html=1;align=center;verticalAlign=middle;resizable=0;points=[];autosize=1;strokeColor=none;fillColor=none;fontSize=28;" parent="1" vertex="1">
          <mxGeometry x="1636.5" y="1060" width="50" height="50" as="geometry" />
        </mxCell>
        <mxCell id="HY1gGdeRaSTk6mKzonEz-221" style="rounded=0;orthogonalLoop=1;jettySize=auto;html=1;entryX=1;entryY=0.35;entryDx=0;entryDy=0;entryPerimeter=0;exitX=0.065;exitY=0.767;exitDx=0;exitDy=0;exitPerimeter=0;dashed=1;" parent="1" source="HY1gGdeRaSTk6mKzonEz-215" target="HY1gGdeRaSTk6mKzonEz-212" edge="1">
          <mxGeometry relative="1" as="geometry">
            <mxPoint x="1452.5" y="1042" as="sourcePoint" />
            <mxPoint x="1611.5" y="1042" as="targetPoint" />
          </mxGeometry>
        </mxCell>
        <mxCell id="HY1gGdeRaSTk6mKzonEz-222" style="rounded=0;orthogonalLoop=1;jettySize=auto;html=1;entryX=1;entryY=0.5;entryDx=0;entryDy=0;endArrow=none;endFill=0;startArrow=classic;startFill=1;" parent="1" source="HY1gGdeRaSTk6mKzonEz-216" target="HY1gGdeRaSTk6mKzonEz-212" edge="1">
          <mxGeometry relative="1" as="geometry">
            <mxPoint x="1597.5" y="1152" as="sourcePoint" />
            <mxPoint x="1467.5" y="1150" as="targetPoint" />
          </mxGeometry>
        </mxCell>
        <mxCell id="HY1gGdeRaSTk6mKzonEz-223" value="analyze directory" style="rounded=0;whiteSpace=wrap;html=1;" parent="1" vertex="1">
          <mxGeometry x="1427.5" y="1052" width="110" height="20" as="geometry" />
        </mxCell>
        <mxCell id="HY1gGdeRaSTk6mKzonEz-225" value="analyze file" style="rounded=0;whiteSpace=wrap;html=1;" parent="1" vertex="1">
          <mxGeometry x="1507.5" y="1192" width="80" height="20" as="geometry" />
        </mxCell>
        <mxCell id="HY1gGdeRaSTk6mKzonEz-226" style="edgeStyle=orthogonalEdgeStyle;rounded=0;orthogonalLoop=1;jettySize=auto;html=1;dashed=1;endArrow=none;endFill=0;startArrow=classic;startFill=1;" parent="1" target="HY1gGdeRaSTk6mKzonEz-212" edge="1">
          <mxGeometry relative="1" as="geometry">
            <mxPoint x="1377.5294117647059" y="1404.2807116507784" as="sourcePoint" />
            <mxPoint x="1407.5" y="1202" as="targetPoint" />
            <Array as="points">
              <mxPoint x="1377.5" y="1292" />
              <mxPoint x="1377.5" y="1292" />
            </Array>
          </mxGeometry>
        </mxCell>
        <mxCell id="HY1gGdeRaSTk6mKzonEz-227" style="rounded=0;orthogonalLoop=1;jettySize=auto;html=1;entryX=0.797;entryY=0.935;entryDx=0;entryDy=0;entryPerimeter=0;exitX=-0.003;exitY=0.455;exitDx=0;exitDy=0;exitPerimeter=0;dashed=1;" parent="1" source="HY1gGdeRaSTk6mKzonEz-213" target="HY1gGdeRaSTk6mKzonEz-212" edge="1">
          <mxGeometry relative="1" as="geometry">
            <mxPoint x="1601.5" y="1272" as="sourcePoint" />
            <mxPoint x="1436.5006921099164" y="1191.9956555683912" as="targetPoint" />
          </mxGeometry>
        </mxCell>
        <mxCell id="HY1gGdeRaSTk6mKzonEz-228" value="lineCount" style="rounded=0;whiteSpace=wrap;html=1;" parent="1" vertex="1">
          <mxGeometry x="1482.5" y="1230" width="65" height="20" as="geometry" />
        </mxCell>
        <mxCell id="HY1gGdeRaSTk6mKzonEz-229" value="FileAnalyzer" style="ellipse;whiteSpace=wrap;html=1;shadow=1;" parent="1" vertex="1">
          <mxGeometry x="1865.5" y="1232" width="120" height="80" as="geometry" />
        </mxCell>
        <mxCell id="HY1gGdeRaSTk6mKzonEz-231" value="DirectoryAnalyzer" style="ellipse;whiteSpace=wrap;html=1;shadow=1;" parent="1" vertex="1">
          <mxGeometry x="1865.5" y="992" width="120" height="80" as="geometry" />
        </mxCell>
        <mxCell id="HY1gGdeRaSTk6mKzonEz-232" value="DirectoryAnalyzer" style="ellipse;whiteSpace=wrap;html=1;shadow=1;" parent="1" vertex="1">
          <mxGeometry x="1865.5" y="1112" width="120" height="80" as="geometry" />
        </mxCell>
        <mxCell id="HY1gGdeRaSTk6mKzonEz-233" style="rounded=0;orthogonalLoop=1;jettySize=auto;html=1;entryX=0;entryY=0.5;entryDx=0;entryDy=0;" parent="1" target="HY1gGdeRaSTk6mKzonEz-231" edge="1">
          <mxGeometry relative="1" as="geometry">
            <mxPoint x="1706.5" y="1125" as="sourcePoint" />
            <mxPoint x="1671.5" y="1202" as="targetPoint" />
          </mxGeometry>
        </mxCell>
        <mxCell id="HY1gGdeRaSTk6mKzonEz-234" style="rounded=0;orthogonalLoop=1;jettySize=auto;html=1;exitX=0.985;exitY=0.647;exitDx=0;exitDy=0;exitPerimeter=0;entryX=0.026;entryY=0.647;entryDx=0;entryDy=0;entryPerimeter=0;dashed=1;endArrow=none;endFill=0;startArrow=classic;startFill=1;" parent="1" target="HY1gGdeRaSTk6mKzonEz-232" edge="1">
          <mxGeometry relative="1" as="geometry">
            <mxPoint x="1719.5" y="1164" as="sourcePoint" />
            <mxPoint x="1885.5" y="1062" as="targetPoint" />
          </mxGeometry>
        </mxCell>
        <mxCell id="HY1gGdeRaSTk6mKzonEz-235" style="rounded=0;orthogonalLoop=1;jettySize=auto;html=1;" parent="1" target="HY1gGdeRaSTk6mKzonEz-229" edge="1">
          <mxGeometry relative="1" as="geometry">
            <mxPoint x="1711.5" y="1174" as="sourcePoint" />
            <mxPoint x="1878.5" y="1209" as="targetPoint" />
          </mxGeometry>
        </mxCell>
        <mxCell id="HY1gGdeRaSTk6mKzonEz-236" value="..." style="text;html=1;align=center;verticalAlign=middle;resizable=0;points=[];autosize=1;strokeColor=none;fillColor=none;fontSize=28;" parent="1" vertex="1">
          <mxGeometry x="1900.5" y="1060" width="50" height="50" as="geometry" />
        </mxCell>
        <mxCell id="HY1gGdeRaSTk6mKzonEz-237" style="rounded=0;orthogonalLoop=1;jettySize=auto;html=1;entryX=1;entryY=0.35;entryDx=0;entryDy=0;entryPerimeter=0;exitX=0.065;exitY=0.767;exitDx=0;exitDy=0;exitPerimeter=0;dashed=1;" parent="1" source="HY1gGdeRaSTk6mKzonEz-231" edge="1">
          <mxGeometry relative="1" as="geometry">
            <mxPoint x="1716.5" y="1042" as="sourcePoint" />
            <mxPoint x="1721.5" y="1140" as="targetPoint" />
          </mxGeometry>
        </mxCell>
        <mxCell id="HY1gGdeRaSTk6mKzonEz-238" style="rounded=0;orthogonalLoop=1;jettySize=auto;html=1;entryX=1;entryY=0.5;entryDx=0;entryDy=0;endArrow=none;endFill=0;startArrow=classic;startFill=1;" parent="1" source="HY1gGdeRaSTk6mKzonEz-232" edge="1">
          <mxGeometry relative="1" as="geometry">
            <mxPoint x="1861.5" y="1152" as="sourcePoint" />
            <mxPoint x="1721.5" y="1152" as="targetPoint" />
          </mxGeometry>
        </mxCell>
        <mxCell id="HY1gGdeRaSTk6mKzonEz-239" style="rounded=0;orthogonalLoop=1;jettySize=auto;html=1;entryX=0.797;entryY=0.935;entryDx=0;entryDy=0;entryPerimeter=0;exitX=-0.003;exitY=0.455;exitDx=0;exitDy=0;exitPerimeter=0;dashed=1;" parent="1" source="HY1gGdeRaSTk6mKzonEz-229" edge="1">
          <mxGeometry relative="1" as="geometry">
            <mxPoint x="1865.5" y="1272" as="sourcePoint" />
            <mxPoint x="1697.5" y="1187" as="targetPoint" />
          </mxGeometry>
        </mxCell>
        <mxCell id="HY1gGdeRaSTk6mKzonEz-241" value="report" style="rounded=0;whiteSpace=wrap;html=1;" parent="1" vertex="1">
          <mxGeometry x="1532" y="1090" width="50" height="20" as="geometry" />
        </mxCell>
        <mxCell id="HY1gGdeRaSTk6mKzonEz-242" value="report" style="rounded=0;whiteSpace=wrap;html=1;" parent="1" vertex="1">
          <mxGeometry x="1332.5" y="1268" width="50" height="20" as="geometry" />
        </mxCell>
        <mxCell id="HY1gGdeRaSTk6mKzonEz-246" value="Manager" style="ellipse;whiteSpace=wrap;html=1;shadow=1;" parent="1" vertex="1">
          <mxGeometry x="1337.5" y="1400" width="120" height="80" as="geometry" />
        </mxCell>
        <mxCell id="HY1gGdeRaSTk6mKzonEz-255" value="root path" style="rounded=0;whiteSpace=wrap;html=1;" parent="1" vertex="1">
          <mxGeometry x="1410" y="1300" width="80" height="20" as="geometry" />
        </mxCell>
        <mxCell id="HY1gGdeRaSTk6mKzonEz-275" value="ViewActor" style="ellipse;whiteSpace=wrap;html=1;fontSize=9;shadow=1;" parent="1" vertex="1">
          <mxGeometry x="2360" y="543" width="80" height="64" as="geometry" />
        </mxCell>
        <mxCell id="HY1gGdeRaSTk6mKzonEz-280" value="N" style="text;html=1;align=center;verticalAlign=middle;resizable=0;points=[];autosize=1;strokeColor=none;fillColor=none;" parent="1" vertex="1">
          <mxGeometry x="1591" y="1216" width="30" height="30" as="geometry" />
        </mxCell>
        <mxCell id="HY1gGdeRaSTk6mKzonEz-281" value="report" style="rounded=0;whiteSpace=wrap;html=1;" parent="1" vertex="1">
          <mxGeometry x="1330" y="268.5" width="50" height="20" as="geometry" />
        </mxCell>
        <mxCell id="HY1gGdeRaSTk6mKzonEz-282" value="N" style="text;html=1;align=center;verticalAlign=middle;resizable=0;points=[];autosize=1;strokeColor=none;fillColor=none;" parent="1" vertex="1">
          <mxGeometry x="1594" y="251" width="30" height="30" as="geometry" />
        </mxCell>
        <mxCell id="HY1gGdeRaSTk6mKzonEz-283" value="root path" style="rounded=0;whiteSpace=wrap;html=1;" parent="1" vertex="1">
          <mxGeometry x="1402.5" y="324" width="80" height="20" as="geometry" />
        </mxCell>
      </root>
    </mxGraphModel>
  </diagram>
  <diagram id="b_t7EiFN0CfNLpsxZOeO" name="part-02-MOM">
    <mxGraphModel dx="1016" dy="696" grid="1" gridSize="10" guides="1" tooltips="1" connect="1" arrows="1" fold="1" page="1" pageScale="1" pageWidth="1169" pageHeight="827" math="0" shadow="0">
      <root>
        <mxCell id="0" />
        <mxCell id="1" parent="0" />
        <mxCell id="V2Fy-O803yfEJh65-XZI-18" value="" style="edgeStyle=orthogonalEdgeStyle;rounded=0;orthogonalLoop=1;jettySize=auto;html=1;" parent="1" source="vNMNnKlu5DTwswbdbvln-55" target="V2Fy-O803yfEJh65-XZI-17" edge="1">
          <mxGeometry relative="1" as="geometry">
            <mxPoint x="810" y="334.41379310344837" as="sourcePoint" />
          </mxGeometry>
        </mxCell>
        <mxCell id="V2Fy-O803yfEJh65-XZI-9" style="edgeStyle=orthogonalEdgeStyle;rounded=0;orthogonalLoop=1;jettySize=auto;html=1;" parent="1" source="V2Fy-O803yfEJh65-XZI-3" target="vNMNnKlu5DTwswbdbvln-65" edge="1">
          <mxGeometry relative="1" as="geometry">
            <Array as="points">
              <mxPoint x="620" y="335" />
              <mxPoint x="620" y="236" />
            </Array>
            <mxPoint x="690" y="236" as="targetPoint" />
          </mxGeometry>
        </mxCell>
        <mxCell id="V2Fy-O803yfEJh65-XZI-10" style="edgeStyle=orthogonalEdgeStyle;rounded=0;orthogonalLoop=1;jettySize=auto;html=1;" parent="1" source="V2Fy-O803yfEJh65-XZI-3" target="vNMNnKlu5DTwswbdbvln-55" edge="1">
          <mxGeometry relative="1" as="geometry">
            <mxPoint x="690" y="334.41379310344837" as="targetPoint" />
          </mxGeometry>
        </mxCell>
        <mxCell id="V2Fy-O803yfEJh65-XZI-11" style="edgeStyle=orthogonalEdgeStyle;rounded=0;orthogonalLoop=1;jettySize=auto;html=1;" parent="1" source="V2Fy-O803yfEJh65-XZI-3" target="vNMNnKlu5DTwswbdbvln-33" edge="1">
          <mxGeometry relative="1" as="geometry">
            <Array as="points">
              <mxPoint x="620" y="335" />
              <mxPoint x="620" y="435" />
            </Array>
            <mxPoint x="690" y="435.0344827586207" as="targetPoint" />
          </mxGeometry>
        </mxCell>
        <mxCell id="V2Fy-O803yfEJh65-XZI-3" value="event exchange" style="ellipse;whiteSpace=wrap;html=1;shadow=1;fillColor=#3a88fe;" parent="1" vertex="1">
          <mxGeometry x="450" y="287.5" width="135" height="95" as="geometry" />
        </mxCell>
        <mxCell id="V2Fy-O803yfEJh65-XZI-16" value="" style="edgeStyle=orthogonalEdgeStyle;rounded=0;orthogonalLoop=1;jettySize=auto;html=1;exitX=1;exitY=0.5;exitDx=0;exitDy=0;" parent="1" source="vNMNnKlu5DTwswbdbvln-65" target="V2Fy-O803yfEJh65-XZI-12" edge="1">
          <mxGeometry relative="1" as="geometry">
            <mxPoint x="830" y="250" as="sourcePoint" />
          </mxGeometry>
        </mxCell>
        <mxCell id="V2Fy-O803yfEJh65-XZI-20" value="" style="edgeStyle=orthogonalEdgeStyle;rounded=0;orthogonalLoop=1;jettySize=auto;html=1;" parent="1" source="vNMNnKlu5DTwswbdbvln-33" target="V2Fy-O803yfEJh65-XZI-19" edge="1">
          <mxGeometry relative="1" as="geometry">
            <mxPoint x="810" y="434.41379310344837" as="sourcePoint" />
          </mxGeometry>
        </mxCell>
        <mxCell id="V2Fy-O803yfEJh65-XZI-8" value="" style="edgeStyle=orthogonalEdgeStyle;rounded=0;orthogonalLoop=1;jettySize=auto;html=1;" parent="1" source="V2Fy-O803yfEJh65-XZI-7" target="V2Fy-O803yfEJh65-XZI-3" edge="1">
          <mxGeometry relative="1" as="geometry" />
        </mxCell>
        <mxCell id="V2Fy-O803yfEJh65-XZI-7" value="client" style="ellipse;whiteSpace=wrap;html=1;fillColor=#00c7fc;shadow=1;" parent="1" vertex="1">
          <mxGeometry x="477.5" y="203" width="80" height="57.5" as="geometry" />
        </mxCell>
        <mxCell id="V2Fy-O803yfEJh65-XZI-12" value="client" style="ellipse;whiteSpace=wrap;html=1;fillColor=#00c7fc;shadow=1;" parent="1" vertex="1">
          <mxGeometry x="870" y="207.39" width="80" height="57.5" as="geometry" />
        </mxCell>
        <mxCell id="V2Fy-O803yfEJh65-XZI-17" value="client" style="ellipse;whiteSpace=wrap;html=1;fillColor=#00c7fc;shadow=1;" parent="1" vertex="1">
          <mxGeometry x="870" y="305.57" width="80" height="57.5" as="geometry" />
        </mxCell>
        <mxCell id="V2Fy-O803yfEJh65-XZI-19" value="client" style="ellipse;whiteSpace=wrap;html=1;fillColor=#00c7fc;shadow=1;" parent="1" vertex="1">
          <mxGeometry x="870" y="406.25" width="80" height="57.5" as="geometry" />
        </mxCell>
        <mxCell id="V2Fy-O803yfEJh65-XZI-21" value="Events --- fanout" style="text;html=1;align=center;verticalAlign=middle;resizable=0;points=[];autosize=1;strokeColor=none;fillColor=none;fontSize=32;fontStyle=1" parent="1" vertex="1">
          <mxGeometry x="420" y="110" width="280" height="50" as="geometry" />
        </mxCell>
        <mxCell id="V2Fy-O803yfEJh65-XZI-24" value="Tutti i client vendono tutti i messaggi, compresi di propri" style="rounded=0;whiteSpace=wrap;html=1;" parent="1" vertex="1">
          <mxGeometry x="850" y="90" width="120" height="60" as="geometry" />
        </mxCell>
        <mxCell id="V2Fy-O803yfEJh65-XZI-27" value="&lt;ul&gt;&lt;li style=&quot;&quot;&gt;&lt;b&gt;pixel_color&lt;/b&gt;: un utente colora un pixel&lt;br&gt;&lt;/li&gt;&lt;li style=&quot;&quot;&gt;&lt;b&gt;mouse_move&lt;/b&gt;: un utente cambia le coordinate del mouse&lt;br&gt;&lt;/li&gt;&lt;li style=&quot;&quot;&gt;&lt;b&gt;color_change&lt;/b&gt;: un utente comunica il nuovo colore del proprio puntatore&lt;br&gt;&lt;/li&gt;&lt;li style=&quot;&quot;&gt;&lt;b&gt;user_exit&lt;/b&gt;: un utente si disconnette&lt;br&gt;&lt;/li&gt;&lt;/ul&gt;" style="text;html=1;align=left;verticalAlign=middle;resizable=0;points=[];autosize=1;strokeColor=none;fillColor=none;" parent="1" vertex="1">
          <mxGeometry width="450" height="90" as="geometry" />
        </mxCell>
        <mxCell id="V2Fy-O803yfEJh65-XZI-28" value="&lt;div style=&quot;text-align: left;&quot;&gt;pixel_color {&lt;/div&gt;&lt;div style=&quot;text-align: left;&quot;&gt;&lt;span style=&quot;white-space: pre;&quot;&gt;&#x9;x: int&lt;/span&gt;&lt;br&gt;&lt;/div&gt;&lt;div style=&quot;text-align: left;&quot;&gt;&lt;span style=&quot;white-space: pre;&quot;&gt;&lt;span style=&quot;white-space: pre;&quot;&gt;&#x9;y: int&lt;/span&gt;&lt;br&gt;&lt;/span&gt;&lt;/div&gt;&lt;div style=&quot;text-align: left;&quot;&gt;&lt;span style=&quot;white-space: pre;&quot;&gt;&lt;span style=&quot;white-space: pre;&quot;&gt;&lt;span style=&quot;white-space: pre;&quot;&gt;&#x9;color: color&lt;/span&gt;&lt;/span&gt;&lt;/span&gt;&lt;/div&gt;&lt;div style=&quot;text-align: left;&quot;&gt;}&lt;/div&gt;" style="text;html=1;align=center;verticalAlign=middle;resizable=0;points=[];autosize=1;strokeColor=none;fillColor=none;" parent="1" vertex="1">
          <mxGeometry x="6" y="123" width="110" height="80" as="geometry" />
        </mxCell>
        <mxCell id="V2Fy-O803yfEJh65-XZI-29" value="&lt;div style=&quot;text-align: left;&quot;&gt;mouse_move &amp;nbsp;{&lt;/div&gt;&lt;div style=&quot;text-align: left;&quot;&gt;&lt;span style=&quot;white-space: pre;&quot;&gt;&#x9;uuid: uuid&lt;/span&gt;&lt;br&gt;&lt;/div&gt;&lt;div style=&quot;text-align: left;&quot;&gt;&lt;span style=&quot;white-space: pre;&quot;&gt;&#x9;x: int&lt;/span&gt;&lt;br&gt;&lt;/div&gt;&lt;div style=&quot;text-align: left;&quot;&gt;&lt;span style=&quot;white-space: pre;&quot;&gt;&lt;span style=&quot;white-space: pre;&quot;&gt;&#x9;y: int&lt;/span&gt;&lt;/span&gt;&lt;/div&gt;&lt;div style=&quot;text-align: left;&quot;&gt;}&lt;/div&gt;" style="text;html=1;align=center;verticalAlign=middle;resizable=0;points=[];autosize=1;strokeColor=none;fillColor=none;" parent="1" vertex="1">
          <mxGeometry x="6" y="207.5" width="110" height="80" as="geometry" />
        </mxCell>
        <mxCell id="V2Fy-O803yfEJh65-XZI-30" value="&lt;div style=&quot;text-align: left;&quot;&gt;color_change &amp;nbsp;{&lt;/div&gt;&lt;div style=&quot;text-align: left;&quot;&gt;&lt;span style=&quot;white-space: pre;&quot;&gt;&#x9;uuid: uuid&lt;/span&gt;&lt;br&gt;&lt;/div&gt;&lt;div style=&quot;text-align: left;&quot;&gt;&lt;span style=&quot;white-space: pre;&quot;&gt;&#x9;color: color&lt;/span&gt;&lt;/div&gt;&lt;div style=&quot;text-align: left;&quot;&gt;}&lt;/div&gt;" style="text;html=1;align=center;verticalAlign=middle;resizable=0;points=[];autosize=1;strokeColor=none;fillColor=none;" parent="1" vertex="1">
          <mxGeometry x="6" y="299.38" width="110" height="70" as="geometry" />
        </mxCell>
        <mxCell id="V2Fy-O803yfEJh65-XZI-31" value="&lt;div style=&quot;text-align: left;&quot;&gt;user_exit &amp;nbsp;{&lt;/div&gt;&lt;div style=&quot;text-align: left;&quot;&gt;&lt;span style=&quot;white-space: pre;&quot;&gt;&#x9;uuid: uuid&lt;/span&gt;&lt;/div&gt;&lt;div style=&quot;text-align: left;&quot;&gt;}&lt;/div&gt;" style="text;html=1;align=center;verticalAlign=middle;resizable=0;points=[];autosize=1;strokeColor=none;fillColor=none;" parent="1" vertex="1">
          <mxGeometry x="11" y="387.5" width="100" height="60" as="geometry" />
        </mxCell>
        <mxCell id="V2Fy-O803yfEJh65-XZI-33" value="" style="edgeStyle=orthogonalEdgeStyle;rounded=0;orthogonalLoop=1;jettySize=auto;html=1;" parent="1" source="V2Fy-O803yfEJh65-XZI-34" target="V2Fy-O803yfEJh65-XZI-46" edge="1">
          <mxGeometry relative="1" as="geometry" />
        </mxCell>
        <mxCell id="V2Fy-O803yfEJh65-XZI-34" value="" style="rounded=0;whiteSpace=wrap;html=1;shadow=1;fillColor=#FF3333;fillStyle=auto;" parent="1" vertex="1">
          <mxGeometry x="1701.5" y="351.88" width="120" height="30" as="geometry" />
        </mxCell>
        <mxCell id="V2Fy-O803yfEJh65-XZI-39" value="" style="rounded=0;orthogonalLoop=1;jettySize=auto;html=1;exitX=1.005;exitY=0.153;exitDx=0;exitDy=0;exitPerimeter=0;" parent="1" source="V2Fy-O803yfEJh65-XZI-34" target="V2Fy-O803yfEJh65-XZI-45" edge="1">
          <mxGeometry relative="1" as="geometry">
            <mxPoint x="1854" y="268.16571428571444" as="sourcePoint" />
          </mxGeometry>
        </mxCell>
        <mxCell id="V2Fy-O803yfEJh65-XZI-41" value="" style="rounded=0;orthogonalLoop=1;jettySize=auto;html=1;exitX=1.002;exitY=0.847;exitDx=0;exitDy=0;exitPerimeter=0;" parent="1" source="V2Fy-O803yfEJh65-XZI-34" target="V2Fy-O803yfEJh65-XZI-47" edge="1">
          <mxGeometry relative="1" as="geometry">
            <mxPoint x="1854" y="466.88" as="sourcePoint" />
          </mxGeometry>
        </mxCell>
        <mxCell id="V2Fy-O803yfEJh65-XZI-43" value="" style="edgeStyle=orthogonalEdgeStyle;rounded=0;orthogonalLoop=1;jettySize=auto;html=1;" parent="1" source="V2Fy-O803yfEJh65-XZI-44" target="V2Fy-O803yfEJh65-XZI-34" edge="1">
          <mxGeometry relative="1" as="geometry">
            <mxPoint x="1494" y="366.88" as="targetPoint" />
          </mxGeometry>
        </mxCell>
        <mxCell id="V2Fy-O803yfEJh65-XZI-44" value="client" style="ellipse;whiteSpace=wrap;html=1;shadow=1;fillColor=#53d5fd;" parent="1" vertex="1">
          <mxGeometry x="1514" y="338.75" width="80" height="57.5" as="geometry" />
        </mxCell>
        <mxCell id="V2Fy-O803yfEJh65-XZI-45" value="client" style="ellipse;whiteSpace=wrap;html=1;shadow=1;fillColor=#53d5fd;" parent="1" vertex="1">
          <mxGeometry x="1914" y="240" width="80" height="57.5" as="geometry" />
        </mxCell>
        <mxCell id="V2Fy-O803yfEJh65-XZI-46" value="client" style="ellipse;whiteSpace=wrap;html=1;shadow=1;fillColor=#53d5fd;" parent="1" vertex="1">
          <mxGeometry x="1914" y="338.75" width="80" height="57.5" as="geometry" />
        </mxCell>
        <mxCell id="V2Fy-O803yfEJh65-XZI-57" style="edgeStyle=orthogonalEdgeStyle;rounded=0;orthogonalLoop=1;jettySize=auto;html=1;" parent="1" source="V2Fy-O803yfEJh65-XZI-47" target="vNMNnKlu5DTwswbdbvln-20" edge="1">
          <mxGeometry relative="1" as="geometry">
            <Array as="points">
              <mxPoint x="1954" y="532" />
            </Array>
            <mxPoint x="1831.5" y="531.8857142857142" as="targetPoint" />
          </mxGeometry>
        </mxCell>
        <mxCell id="V2Fy-O803yfEJh65-XZI-47" value="client" style="ellipse;whiteSpace=wrap;html=1;shadow=1;fillColor=#53d5fd;" parent="1" vertex="1">
          <mxGeometry x="1914" y="438.75" width="80" height="57.5" as="geometry" />
        </mxCell>
        <mxCell id="V2Fy-O803yfEJh65-XZI-48" value="Get State --- direct" style="text;html=1;align=center;verticalAlign=middle;resizable=0;points=[];autosize=1;strokeColor=none;fillColor=none;fontSize=32;fontStyle=1" parent="1" vertex="1">
          <mxGeometry x="1620" y="125.61999999999999" width="300" height="50" as="geometry" />
        </mxCell>
        <mxCell id="V2Fy-O803yfEJh65-XZI-62" value="" style="edgeStyle=orthogonalEdgeStyle;rounded=0;orthogonalLoop=1;jettySize=auto;html=1;" parent="1" source="V2Fy-O803yfEJh65-XZI-49" target="V2Fy-O803yfEJh65-XZI-61" edge="1">
          <mxGeometry relative="1" as="geometry" />
        </mxCell>
        <mxCell id="V2Fy-O803yfEJh65-XZI-49" value="Un client si collega al sistema e richiede lo stato della griglia ad uno dei client presenti" style="rounded=0;whiteSpace=wrap;html=1;" parent="1" vertex="1">
          <mxGeometry x="2120" y="90" width="130" height="75.62" as="geometry" />
        </mxCell>
        <mxCell id="V2Fy-O803yfEJh65-XZI-50" value="&lt;ul&gt;&lt;li style=&quot;&quot;&gt;&lt;b&gt;get_state&lt;/b&gt;: un client pubblica una richiesta che verrà ricevuta da un solo client&lt;/li&gt;&lt;/ul&gt;" style="text;html=1;align=left;verticalAlign=middle;resizable=0;points=[];autosize=1;strokeColor=none;fillColor=none;" parent="1" vertex="1">
          <mxGeometry x="1210" y="35.61999999999999" width="480" height="50" as="geometry" />
        </mxCell>
        <mxCell id="V2Fy-O803yfEJh65-XZI-58" style="edgeStyle=orthogonalEdgeStyle;rounded=0;orthogonalLoop=1;jettySize=auto;html=1;" parent="1" source="vNMNnKlu5DTwswbdbvln-20" target="V2Fy-O803yfEJh65-XZI-44" edge="1">
          <mxGeometry relative="1" as="geometry">
            <mxPoint x="1711.5" y="531.8857142857142" as="sourcePoint" />
          </mxGeometry>
        </mxCell>
        <mxCell id="V2Fy-O803yfEJh65-XZI-59" value="Queue reply_to" style="text;html=1;align=center;verticalAlign=middle;resizable=0;points=[];autosize=1;strokeColor=none;fillColor=none;" parent="1" vertex="1">
          <mxGeometry x="1706.5" y="486.88" width="110" height="30" as="geometry" />
        </mxCell>
        <mxCell id="V2Fy-O803yfEJh65-XZI-60" value="Queue state_request" style="text;html=1;align=center;verticalAlign=middle;resizable=0;points=[];autosize=1;strokeColor=none;fillColor=none;" parent="1" vertex="1">
          <mxGeometry x="1691.5" y="321.88" width="140" height="30" as="geometry" />
        </mxCell>
        <mxCell id="V2Fy-O803yfEJh65-XZI-64" value="" style="edgeStyle=orthogonalEdgeStyle;rounded=0;orthogonalLoop=1;jettySize=auto;html=1;" parent="1" source="V2Fy-O803yfEJh65-XZI-61" target="V2Fy-O803yfEJh65-XZI-63" edge="1">
          <mxGeometry relative="1" as="geometry" />
        </mxCell>
        <mxCell id="V2Fy-O803yfEJh65-XZI-61" value="Un solo client riceve la richiesta" style="rounded=0;whiteSpace=wrap;html=1;" parent="1" vertex="1">
          <mxGeometry x="2120" y="246.26" width="130" height="75.62" as="geometry" />
        </mxCell>
        <mxCell id="V2Fy-O803yfEJh65-XZI-63" value="Chi riceve la richiesta, risponde con il proprio stato" style="rounded=0;whiteSpace=wrap;html=1;" parent="1" vertex="1">
          <mxGeometry x="2120" y="406.25" width="130" height="75.62" as="geometry" />
        </mxCell>
        <mxCell id="V2Fy-O803yfEJh65-XZI-66" value="&lt;div style=&quot;text-align: left;&quot;&gt;get_state { }&lt;/div&gt;" style="text;html=1;align=center;verticalAlign=middle;resizable=0;points=[];autosize=1;strokeColor=none;fillColor=none;" parent="1" vertex="1">
          <mxGeometry x="1210" y="135" width="90" height="30" as="geometry" />
        </mxCell>
        <mxCell id="V2Fy-O803yfEJh65-XZI-67" value="&lt;div style=&quot;text-align: left;&quot;&gt;reply_to {&lt;/div&gt;&lt;div style=&quot;text-align: left;&quot;&gt;&lt;span style=&quot;white-space: pre;&quot;&gt;&#x9;grid: PixelGrid,&lt;/span&gt;&lt;/div&gt;&lt;div style=&quot;text-align: left;&quot;&gt;&lt;span style=&quot;white-space: pre;&quot;&gt;&lt;span style=&quot;white-space: pre;&quot;&gt;&#x9;users&lt;/span&gt;: Map[UUID, Brush]&lt;/span&gt;&lt;/div&gt;&lt;div style=&quot;text-align: left;&quot;&gt;}&lt;/div&gt;" style="text;html=1;align=center;verticalAlign=middle;resizable=0;points=[];autosize=1;strokeColor=none;fillColor=none;" parent="1" vertex="1">
          <mxGeometry x="1170" y="181.26" width="190" height="70" as="geometry" />
        </mxCell>
        <mxCell id="V2Fy-O803yfEJh65-XZI-70" value="Vedi RPC pattern rabbitMQ" style="text;html=1;align=center;verticalAlign=middle;resizable=0;points=[];autosize=1;strokeColor=none;fillColor=none;" parent="1" vertex="1">
          <mxGeometry x="1685" y="177.5" width="170" height="30" as="geometry" />
        </mxCell>
        <mxCell id="vNMNnKlu5DTwswbdbvln-1" value="" style="endArrow=none;html=1;rounded=0;" edge="1" parent="1">
          <mxGeometry width="50" height="50" relative="1" as="geometry">
            <mxPoint x="1810" y="351.88" as="sourcePoint" />
            <mxPoint x="1810" y="381.88" as="targetPoint" />
          </mxGeometry>
        </mxCell>
        <mxCell id="vNMNnKlu5DTwswbdbvln-2" value="" style="endArrow=none;html=1;rounded=0;" edge="1" parent="1">
          <mxGeometry width="50" height="50" relative="1" as="geometry">
            <mxPoint x="1798" y="351.88" as="sourcePoint" />
            <mxPoint x="1798" y="381.88" as="targetPoint" />
          </mxGeometry>
        </mxCell>
        <mxCell id="vNMNnKlu5DTwswbdbvln-3" value="" style="endArrow=none;html=1;rounded=0;" edge="1" parent="1">
          <mxGeometry width="50" height="50" relative="1" as="geometry">
            <mxPoint x="1786" y="351.88" as="sourcePoint" />
            <mxPoint x="1786" y="381.88" as="targetPoint" />
          </mxGeometry>
        </mxCell>
        <mxCell id="vNMNnKlu5DTwswbdbvln-4" value="" style="endArrow=none;html=1;rounded=0;" edge="1" parent="1">
          <mxGeometry width="50" height="50" relative="1" as="geometry">
            <mxPoint x="1774" y="351.88" as="sourcePoint" />
            <mxPoint x="1774" y="381.88" as="targetPoint" />
          </mxGeometry>
        </mxCell>
        <mxCell id="vNMNnKlu5DTwswbdbvln-5" value="" style="endArrow=none;html=1;rounded=0;" edge="1" parent="1">
          <mxGeometry width="50" height="50" relative="1" as="geometry">
            <mxPoint x="1762" y="351.88" as="sourcePoint" />
            <mxPoint x="1762" y="381.88" as="targetPoint" />
          </mxGeometry>
        </mxCell>
        <mxCell id="vNMNnKlu5DTwswbdbvln-6" value="" style="endArrow=none;html=1;rounded=0;" edge="1" parent="1">
          <mxGeometry width="50" height="50" relative="1" as="geometry">
            <mxPoint x="1750" y="351.88" as="sourcePoint" />
            <mxPoint x="1750" y="381.88" as="targetPoint" />
          </mxGeometry>
        </mxCell>
        <mxCell id="vNMNnKlu5DTwswbdbvln-7" value="" style="endArrow=none;html=1;rounded=0;" edge="1" parent="1">
          <mxGeometry width="50" height="50" relative="1" as="geometry">
            <mxPoint x="1738" y="351.88" as="sourcePoint" />
            <mxPoint x="1738" y="381.88" as="targetPoint" />
          </mxGeometry>
        </mxCell>
        <mxCell id="vNMNnKlu5DTwswbdbvln-8" value="" style="endArrow=none;html=1;rounded=0;" edge="1" parent="1">
          <mxGeometry width="50" height="50" relative="1" as="geometry">
            <mxPoint x="1726" y="351.88" as="sourcePoint" />
            <mxPoint x="1726" y="381.88" as="targetPoint" />
          </mxGeometry>
        </mxCell>
        <mxCell id="vNMNnKlu5DTwswbdbvln-9" value="" style="endArrow=none;html=1;rounded=0;" edge="1" parent="1">
          <mxGeometry width="50" height="50" relative="1" as="geometry">
            <mxPoint x="1714.5" y="351.88" as="sourcePoint" />
            <mxPoint x="1714.5" y="381.88" as="targetPoint" />
          </mxGeometry>
        </mxCell>
        <mxCell id="vNMNnKlu5DTwswbdbvln-20" value="" style="rounded=0;whiteSpace=wrap;html=1;shadow=1;fillColor=#FF3333;fillStyle=auto;" vertex="1" parent="1">
          <mxGeometry x="1702" y="516.88" width="120" height="30" as="geometry" />
        </mxCell>
        <mxCell id="vNMNnKlu5DTwswbdbvln-21" value="" style="endArrow=none;html=1;rounded=0;" edge="1" parent="1">
          <mxGeometry width="50" height="50" relative="1" as="geometry">
            <mxPoint x="1810.5" y="516.88" as="sourcePoint" />
            <mxPoint x="1810.5" y="546.88" as="targetPoint" />
          </mxGeometry>
        </mxCell>
        <mxCell id="vNMNnKlu5DTwswbdbvln-22" value="" style="endArrow=none;html=1;rounded=0;" edge="1" parent="1">
          <mxGeometry width="50" height="50" relative="1" as="geometry">
            <mxPoint x="1798.5" y="516.88" as="sourcePoint" />
            <mxPoint x="1798.5" y="546.88" as="targetPoint" />
          </mxGeometry>
        </mxCell>
        <mxCell id="vNMNnKlu5DTwswbdbvln-23" value="" style="endArrow=none;html=1;rounded=0;" edge="1" parent="1">
          <mxGeometry width="50" height="50" relative="1" as="geometry">
            <mxPoint x="1786.5" y="516.88" as="sourcePoint" />
            <mxPoint x="1786.5" y="546.88" as="targetPoint" />
          </mxGeometry>
        </mxCell>
        <mxCell id="vNMNnKlu5DTwswbdbvln-24" value="" style="endArrow=none;html=1;rounded=0;" edge="1" parent="1">
          <mxGeometry width="50" height="50" relative="1" as="geometry">
            <mxPoint x="1774.5" y="516.88" as="sourcePoint" />
            <mxPoint x="1774.5" y="546.88" as="targetPoint" />
          </mxGeometry>
        </mxCell>
        <mxCell id="vNMNnKlu5DTwswbdbvln-25" value="" style="endArrow=none;html=1;rounded=0;" edge="1" parent="1">
          <mxGeometry width="50" height="50" relative="1" as="geometry">
            <mxPoint x="1762.5" y="516.88" as="sourcePoint" />
            <mxPoint x="1762.5" y="546.88" as="targetPoint" />
          </mxGeometry>
        </mxCell>
        <mxCell id="vNMNnKlu5DTwswbdbvln-26" value="" style="endArrow=none;html=1;rounded=0;" edge="1" parent="1">
          <mxGeometry width="50" height="50" relative="1" as="geometry">
            <mxPoint x="1750.5" y="516.88" as="sourcePoint" />
            <mxPoint x="1750.5" y="546.88" as="targetPoint" />
          </mxGeometry>
        </mxCell>
        <mxCell id="vNMNnKlu5DTwswbdbvln-27" value="" style="endArrow=none;html=1;rounded=0;" edge="1" parent="1">
          <mxGeometry width="50" height="50" relative="1" as="geometry">
            <mxPoint x="1738.5" y="516.88" as="sourcePoint" />
            <mxPoint x="1738.5" y="546.88" as="targetPoint" />
          </mxGeometry>
        </mxCell>
        <mxCell id="vNMNnKlu5DTwswbdbvln-28" value="" style="endArrow=none;html=1;rounded=0;" edge="1" parent="1">
          <mxGeometry width="50" height="50" relative="1" as="geometry">
            <mxPoint x="1726.5" y="516.88" as="sourcePoint" />
            <mxPoint x="1726.5" y="546.88" as="targetPoint" />
          </mxGeometry>
        </mxCell>
        <mxCell id="vNMNnKlu5DTwswbdbvln-29" value="" style="endArrow=none;html=1;rounded=0;" edge="1" parent="1">
          <mxGeometry width="50" height="50" relative="1" as="geometry">
            <mxPoint x="1715" y="516.88" as="sourcePoint" />
            <mxPoint x="1715" y="547" as="targetPoint" />
          </mxGeometry>
        </mxCell>
        <mxCell id="vNMNnKlu5DTwswbdbvln-30" value="reply_to=&amp;lt;queue_name&amp;gt;" style="rounded=0;whiteSpace=wrap;html=1;fontSize=9;fillColor=#c0c0c0;" vertex="1" parent="1">
          <mxGeometry x="1610" y="330" width="70" height="33.75" as="geometry" />
        </mxCell>
        <mxCell id="vNMNnKlu5DTwswbdbvln-31" value="reply_to=&amp;lt;queue_name&amp;gt;" style="rounded=0;whiteSpace=wrap;html=1;fontSize=9;fillColor=#c0c0c0;" vertex="1" parent="1">
          <mxGeometry x="1816.5" y="406.25" width="70" height="33.75" as="geometry" />
        </mxCell>
        <mxCell id="vNMNnKlu5DTwswbdbvln-32" value="grid, users" style="rounded=0;whiteSpace=wrap;html=1;fontSize=9;fillColor=#c0c0c0;" vertex="1" parent="1">
          <mxGeometry x="1594" y="494.25" width="70" height="33.75" as="geometry" />
        </mxCell>
        <mxCell id="vNMNnKlu5DTwswbdbvln-33" value="" style="rounded=0;whiteSpace=wrap;html=1;shadow=1;fillColor=#FF3333;fillStyle=auto;" vertex="1" parent="1">
          <mxGeometry x="690" y="419.94" width="120" height="30" as="geometry" />
        </mxCell>
        <mxCell id="vNMNnKlu5DTwswbdbvln-34" value="" style="endArrow=none;html=1;rounded=0;" edge="1" parent="1">
          <mxGeometry width="50" height="50" relative="1" as="geometry">
            <mxPoint x="798.5" y="419.94" as="sourcePoint" />
            <mxPoint x="798.5" y="449.94" as="targetPoint" />
          </mxGeometry>
        </mxCell>
        <mxCell id="vNMNnKlu5DTwswbdbvln-35" value="" style="endArrow=none;html=1;rounded=0;" edge="1" parent="1">
          <mxGeometry width="50" height="50" relative="1" as="geometry">
            <mxPoint x="786.5" y="419.94" as="sourcePoint" />
            <mxPoint x="786.5" y="449.94" as="targetPoint" />
          </mxGeometry>
        </mxCell>
        <mxCell id="vNMNnKlu5DTwswbdbvln-36" value="" style="endArrow=none;html=1;rounded=0;" edge="1" parent="1">
          <mxGeometry width="50" height="50" relative="1" as="geometry">
            <mxPoint x="774.5" y="419.94" as="sourcePoint" />
            <mxPoint x="774.5" y="449.94" as="targetPoint" />
          </mxGeometry>
        </mxCell>
        <mxCell id="vNMNnKlu5DTwswbdbvln-37" value="" style="endArrow=none;html=1;rounded=0;" edge="1" parent="1">
          <mxGeometry width="50" height="50" relative="1" as="geometry">
            <mxPoint x="762.5" y="419.94" as="sourcePoint" />
            <mxPoint x="762.5" y="449.94" as="targetPoint" />
          </mxGeometry>
        </mxCell>
        <mxCell id="vNMNnKlu5DTwswbdbvln-38" value="" style="endArrow=none;html=1;rounded=0;" edge="1" parent="1">
          <mxGeometry width="50" height="50" relative="1" as="geometry">
            <mxPoint x="750.5" y="419.94" as="sourcePoint" />
            <mxPoint x="750.5" y="449.94" as="targetPoint" />
          </mxGeometry>
        </mxCell>
        <mxCell id="vNMNnKlu5DTwswbdbvln-39" value="" style="endArrow=none;html=1;rounded=0;" edge="1" parent="1">
          <mxGeometry width="50" height="50" relative="1" as="geometry">
            <mxPoint x="738.5" y="419.94" as="sourcePoint" />
            <mxPoint x="738.5" y="449.94" as="targetPoint" />
          </mxGeometry>
        </mxCell>
        <mxCell id="vNMNnKlu5DTwswbdbvln-40" value="" style="endArrow=none;html=1;rounded=0;" edge="1" parent="1">
          <mxGeometry width="50" height="50" relative="1" as="geometry">
            <mxPoint x="726.5" y="419.94" as="sourcePoint" />
            <mxPoint x="726.5" y="449.94" as="targetPoint" />
          </mxGeometry>
        </mxCell>
        <mxCell id="vNMNnKlu5DTwswbdbvln-41" value="" style="endArrow=none;html=1;rounded=0;" edge="1" parent="1">
          <mxGeometry width="50" height="50" relative="1" as="geometry">
            <mxPoint x="714.5" y="419.94" as="sourcePoint" />
            <mxPoint x="714.5" y="449.94" as="targetPoint" />
          </mxGeometry>
        </mxCell>
        <mxCell id="vNMNnKlu5DTwswbdbvln-42" value="" style="endArrow=none;html=1;rounded=0;" edge="1" parent="1">
          <mxGeometry width="50" height="50" relative="1" as="geometry">
            <mxPoint x="703" y="419.94" as="sourcePoint" />
            <mxPoint x="703" y="450.06" as="targetPoint" />
          </mxGeometry>
        </mxCell>
        <mxCell id="vNMNnKlu5DTwswbdbvln-55" value="" style="rounded=0;whiteSpace=wrap;html=1;shadow=1;fillColor=#FF3333;fillStyle=auto;" vertex="1" parent="1">
          <mxGeometry x="690" y="319.32" width="120" height="30" as="geometry" />
        </mxCell>
        <mxCell id="vNMNnKlu5DTwswbdbvln-56" value="" style="endArrow=none;html=1;rounded=0;" edge="1" parent="1">
          <mxGeometry width="50" height="50" relative="1" as="geometry">
            <mxPoint x="798.5" y="319.32" as="sourcePoint" />
            <mxPoint x="798.5" y="349.32" as="targetPoint" />
          </mxGeometry>
        </mxCell>
        <mxCell id="vNMNnKlu5DTwswbdbvln-57" value="" style="endArrow=none;html=1;rounded=0;" edge="1" parent="1">
          <mxGeometry width="50" height="50" relative="1" as="geometry">
            <mxPoint x="786.5" y="319.32" as="sourcePoint" />
            <mxPoint x="786.5" y="349.32" as="targetPoint" />
          </mxGeometry>
        </mxCell>
        <mxCell id="vNMNnKlu5DTwswbdbvln-58" value="" style="endArrow=none;html=1;rounded=0;" edge="1" parent="1">
          <mxGeometry width="50" height="50" relative="1" as="geometry">
            <mxPoint x="774.5" y="319.32" as="sourcePoint" />
            <mxPoint x="774.5" y="349.32" as="targetPoint" />
          </mxGeometry>
        </mxCell>
        <mxCell id="vNMNnKlu5DTwswbdbvln-59" value="" style="endArrow=none;html=1;rounded=0;" edge="1" parent="1">
          <mxGeometry width="50" height="50" relative="1" as="geometry">
            <mxPoint x="762.5" y="319.32" as="sourcePoint" />
            <mxPoint x="762.5" y="349.32" as="targetPoint" />
          </mxGeometry>
        </mxCell>
        <mxCell id="vNMNnKlu5DTwswbdbvln-60" value="" style="endArrow=none;html=1;rounded=0;" edge="1" parent="1">
          <mxGeometry width="50" height="50" relative="1" as="geometry">
            <mxPoint x="750.5" y="319.32" as="sourcePoint" />
            <mxPoint x="750.5" y="349.32" as="targetPoint" />
          </mxGeometry>
        </mxCell>
        <mxCell id="vNMNnKlu5DTwswbdbvln-61" value="" style="endArrow=none;html=1;rounded=0;" edge="1" parent="1">
          <mxGeometry width="50" height="50" relative="1" as="geometry">
            <mxPoint x="738.5" y="319.32" as="sourcePoint" />
            <mxPoint x="738.5" y="349.32" as="targetPoint" />
          </mxGeometry>
        </mxCell>
        <mxCell id="vNMNnKlu5DTwswbdbvln-62" value="" style="endArrow=none;html=1;rounded=0;" edge="1" parent="1">
          <mxGeometry width="50" height="50" relative="1" as="geometry">
            <mxPoint x="726.5" y="319.32" as="sourcePoint" />
            <mxPoint x="726.5" y="349.32" as="targetPoint" />
          </mxGeometry>
        </mxCell>
        <mxCell id="vNMNnKlu5DTwswbdbvln-63" value="" style="endArrow=none;html=1;rounded=0;" edge="1" parent="1">
          <mxGeometry width="50" height="50" relative="1" as="geometry">
            <mxPoint x="714.5" y="319.32" as="sourcePoint" />
            <mxPoint x="714.5" y="349.32" as="targetPoint" />
          </mxGeometry>
        </mxCell>
        <mxCell id="vNMNnKlu5DTwswbdbvln-64" value="" style="endArrow=none;html=1;rounded=0;" edge="1" parent="1">
          <mxGeometry width="50" height="50" relative="1" as="geometry">
            <mxPoint x="703" y="319.32" as="sourcePoint" />
            <mxPoint x="703" y="349.44" as="targetPoint" />
          </mxGeometry>
        </mxCell>
        <mxCell id="vNMNnKlu5DTwswbdbvln-65" value="" style="rounded=0;whiteSpace=wrap;html=1;shadow=1;fillColor=#FF3333;fillStyle=auto;" vertex="1" parent="1">
          <mxGeometry x="690" y="221.14" width="120" height="30" as="geometry" />
        </mxCell>
        <mxCell id="vNMNnKlu5DTwswbdbvln-66" value="" style="endArrow=none;html=1;rounded=0;" edge="1" parent="1">
          <mxGeometry width="50" height="50" relative="1" as="geometry">
            <mxPoint x="798.5" y="221.14" as="sourcePoint" />
            <mxPoint x="798.5" y="251.14" as="targetPoint" />
          </mxGeometry>
        </mxCell>
        <mxCell id="vNMNnKlu5DTwswbdbvln-67" value="" style="endArrow=none;html=1;rounded=0;" edge="1" parent="1">
          <mxGeometry width="50" height="50" relative="1" as="geometry">
            <mxPoint x="786.5" y="221.14" as="sourcePoint" />
            <mxPoint x="786.5" y="251.14" as="targetPoint" />
          </mxGeometry>
        </mxCell>
        <mxCell id="vNMNnKlu5DTwswbdbvln-68" value="" style="endArrow=none;html=1;rounded=0;" edge="1" parent="1">
          <mxGeometry width="50" height="50" relative="1" as="geometry">
            <mxPoint x="774.5" y="221.14" as="sourcePoint" />
            <mxPoint x="774.5" y="251.14" as="targetPoint" />
          </mxGeometry>
        </mxCell>
        <mxCell id="vNMNnKlu5DTwswbdbvln-69" value="" style="endArrow=none;html=1;rounded=0;" edge="1" parent="1">
          <mxGeometry width="50" height="50" relative="1" as="geometry">
            <mxPoint x="762.5" y="221.14" as="sourcePoint" />
            <mxPoint x="762.5" y="251.14" as="targetPoint" />
          </mxGeometry>
        </mxCell>
        <mxCell id="vNMNnKlu5DTwswbdbvln-70" value="" style="endArrow=none;html=1;rounded=0;" edge="1" parent="1">
          <mxGeometry width="50" height="50" relative="1" as="geometry">
            <mxPoint x="750.5" y="221.14" as="sourcePoint" />
            <mxPoint x="750.5" y="251.14" as="targetPoint" />
          </mxGeometry>
        </mxCell>
        <mxCell id="vNMNnKlu5DTwswbdbvln-71" value="" style="endArrow=none;html=1;rounded=0;" edge="1" parent="1">
          <mxGeometry width="50" height="50" relative="1" as="geometry">
            <mxPoint x="738.5" y="221.14" as="sourcePoint" />
            <mxPoint x="738.5" y="251.14" as="targetPoint" />
          </mxGeometry>
        </mxCell>
        <mxCell id="vNMNnKlu5DTwswbdbvln-72" value="" style="endArrow=none;html=1;rounded=0;" edge="1" parent="1">
          <mxGeometry width="50" height="50" relative="1" as="geometry">
            <mxPoint x="726.5" y="221.14" as="sourcePoint" />
            <mxPoint x="726.5" y="251.14" as="targetPoint" />
          </mxGeometry>
        </mxCell>
        <mxCell id="vNMNnKlu5DTwswbdbvln-73" value="" style="endArrow=none;html=1;rounded=0;" edge="1" parent="1">
          <mxGeometry width="50" height="50" relative="1" as="geometry">
            <mxPoint x="714.5" y="221.14" as="sourcePoint" />
            <mxPoint x="714.5" y="251.14" as="targetPoint" />
          </mxGeometry>
        </mxCell>
        <mxCell id="vNMNnKlu5DTwswbdbvln-74" value="" style="endArrow=none;html=1;rounded=0;" edge="1" parent="1">
          <mxGeometry width="50" height="50" relative="1" as="geometry">
            <mxPoint x="703" y="221.14" as="sourcePoint" />
            <mxPoint x="703" y="251.26" as="targetPoint" />
          </mxGeometry>
        </mxCell>
        <mxCell id="vNMNnKlu5DTwswbdbvln-107" value="" style="group" vertex="1" connectable="0" parent="1">
          <mxGeometry x="340" y="276.25" width="30" height="120" as="geometry" />
        </mxCell>
        <mxCell id="vNMNnKlu5DTwswbdbvln-85" value="" style="rounded=0;whiteSpace=wrap;html=1;shadow=1;fillColor=#FF3333;fillStyle=auto;direction=south;" vertex="1" parent="vNMNnKlu5DTwswbdbvln-107">
          <mxGeometry width="30" height="120" as="geometry" />
        </mxCell>
        <mxCell id="vNMNnKlu5DTwswbdbvln-86" value="" style="endArrow=none;html=1;rounded=0;" edge="1" parent="vNMNnKlu5DTwswbdbvln-107">
          <mxGeometry width="50" height="50" relative="1" as="geometry">
            <mxPoint y="9.670000000000016" as="sourcePoint" />
            <mxPoint x="30" y="9.670000000000016" as="targetPoint" />
          </mxGeometry>
        </mxCell>
        <mxCell id="vNMNnKlu5DTwswbdbvln-96" value="" style="endArrow=none;html=1;rounded=0;" edge="1" parent="vNMNnKlu5DTwswbdbvln-107">
          <mxGeometry width="50" height="50" relative="1" as="geometry">
            <mxPoint y="20.30000000000001" as="sourcePoint" />
            <mxPoint x="30" y="20.30000000000001" as="targetPoint" />
          </mxGeometry>
        </mxCell>
        <mxCell id="vNMNnKlu5DTwswbdbvln-97" value="" style="endArrow=none;html=1;rounded=0;" edge="1" parent="vNMNnKlu5DTwswbdbvln-107">
          <mxGeometry width="50" height="50" relative="1" as="geometry">
            <mxPoint y="31.370000000000005" as="sourcePoint" />
            <mxPoint x="30" y="31.370000000000005" as="targetPoint" />
          </mxGeometry>
        </mxCell>
        <mxCell id="vNMNnKlu5DTwswbdbvln-98" value="" style="endArrow=none;html=1;rounded=0;" edge="1" parent="vNMNnKlu5DTwswbdbvln-107">
          <mxGeometry width="50" height="50" relative="1" as="geometry">
            <mxPoint y="42" as="sourcePoint" />
            <mxPoint x="30" y="42" as="targetPoint" />
          </mxGeometry>
        </mxCell>
        <mxCell id="vNMNnKlu5DTwswbdbvln-99" value="" style="endArrow=none;html=1;rounded=0;" edge="1" parent="vNMNnKlu5DTwswbdbvln-107">
          <mxGeometry width="50" height="50" relative="1" as="geometry">
            <mxPoint y="42.39000000000004" as="sourcePoint" />
            <mxPoint x="30" y="42.39000000000004" as="targetPoint" />
          </mxGeometry>
        </mxCell>
        <mxCell id="vNMNnKlu5DTwswbdbvln-100" value="" style="endArrow=none;html=1;rounded=0;" edge="1" parent="vNMNnKlu5DTwswbdbvln-107">
          <mxGeometry width="50" height="50" relative="1" as="geometry">
            <mxPoint y="53.02000000000004" as="sourcePoint" />
            <mxPoint x="30" y="53.02000000000004" as="targetPoint" />
          </mxGeometry>
        </mxCell>
        <mxCell id="vNMNnKlu5DTwswbdbvln-101" value="" style="endArrow=none;html=1;rounded=0;" edge="1" parent="vNMNnKlu5DTwswbdbvln-107">
          <mxGeometry width="50" height="50" relative="1" as="geometry">
            <mxPoint y="64.08999999999997" as="sourcePoint" />
            <mxPoint x="30" y="64.08999999999997" as="targetPoint" />
          </mxGeometry>
        </mxCell>
        <mxCell id="vNMNnKlu5DTwswbdbvln-102" value="" style="endArrow=none;html=1;rounded=0;" edge="1" parent="vNMNnKlu5DTwswbdbvln-107">
          <mxGeometry width="50" height="50" relative="1" as="geometry">
            <mxPoint y="74.71999999999997" as="sourcePoint" />
            <mxPoint x="30" y="74.71999999999997" as="targetPoint" />
          </mxGeometry>
        </mxCell>
        <mxCell id="vNMNnKlu5DTwswbdbvln-103" value="" style="endArrow=none;html=1;rounded=0;" edge="1" parent="vNMNnKlu5DTwswbdbvln-107">
          <mxGeometry width="50" height="50" relative="1" as="geometry">
            <mxPoint y="86.27000000000004" as="sourcePoint" />
            <mxPoint x="30" y="86.27000000000004" as="targetPoint" />
          </mxGeometry>
        </mxCell>
        <mxCell id="vNMNnKlu5DTwswbdbvln-104" value="" style="endArrow=none;html=1;rounded=0;" edge="1" parent="vNMNnKlu5DTwswbdbvln-107">
          <mxGeometry width="50" height="50" relative="1" as="geometry">
            <mxPoint y="96.90000000000003" as="sourcePoint" />
            <mxPoint x="30" y="96.90000000000003" as="targetPoint" />
          </mxGeometry>
        </mxCell>
        <mxCell id="vNMNnKlu5DTwswbdbvln-105" value="" style="endArrow=none;html=1;rounded=0;" edge="1" parent="vNMNnKlu5DTwswbdbvln-107">
          <mxGeometry width="50" height="50" relative="1" as="geometry">
            <mxPoint y="107.96999999999997" as="sourcePoint" />
            <mxPoint x="30" y="107.96999999999997" as="targetPoint" />
          </mxGeometry>
        </mxCell>
        <mxCell id="vNMNnKlu5DTwswbdbvln-108" value="" style="edgeStyle=orthogonalEdgeStyle;rounded=0;orthogonalLoop=1;jettySize=auto;html=1;entryX=1;entryY=0.5;entryDx=0;entryDy=0;" edge="1" parent="1" source="V2Fy-O803yfEJh65-XZI-3" target="vNMNnKlu5DTwswbdbvln-85">
          <mxGeometry relative="1" as="geometry">
            <mxPoint x="528" y="250" as="sourcePoint" />
            <mxPoint x="528" y="298" as="targetPoint" />
            <Array as="points">
              <mxPoint x="520" y="450" />
              <mxPoint x="355" y="450" />
            </Array>
          </mxGeometry>
        </mxCell>
        <mxCell id="vNMNnKlu5DTwswbdbvln-109" style="edgeStyle=orthogonalEdgeStyle;rounded=0;orthogonalLoop=1;jettySize=auto;html=1;" edge="1" parent="1" source="vNMNnKlu5DTwswbdbvln-85" target="V2Fy-O803yfEJh65-XZI-7">
          <mxGeometry relative="1" as="geometry">
            <mxPoint x="355" y="287.5" as="sourcePoint" />
            <Array as="points">
              <mxPoint x="355" y="232" />
            </Array>
          </mxGeometry>
        </mxCell>
      </root>
    </mxGraphModel>
  </diagram>
  <diagram id="gHJdt5LN4EKn-9YJyBgM" name="part-03-rmi">
    <mxGraphModel dx="1016" dy="696" grid="1" gridSize="10" guides="1" tooltips="1" connect="1" arrows="1" fold="1" page="1" pageScale="1" pageWidth="1169" pageHeight="827" math="0" shadow="0">
      <root>
        <mxCell id="0" />
        <mxCell id="1" parent="0" />
        <mxCell id="gEEGvMayAHdQgeYzYYgf-11" value="" style="edgeStyle=orthogonalEdgeStyle;rounded=0;orthogonalLoop=1;jettySize=auto;html=1;startArrow=classic;startFill=1;" edge="1" parent="1" source="gEEGvMayAHdQgeYzYYgf-9" target="gEEGvMayAHdQgeYzYYgf-10">
          <mxGeometry relative="1" as="geometry" />
        </mxCell>
        <mxCell id="gEEGvMayAHdQgeYzYYgf-9" value="ModelService" style="ellipse;whiteSpace=wrap;html=1;" vertex="1" parent="1">
          <mxGeometry x="430" y="170" width="120" height="80" as="geometry" />
        </mxCell>
        <mxCell id="gEEGvMayAHdQgeYzYYgf-10" value="&lt;br&gt;&lt;div style=&quot;text-align: left;&quot;&gt;- users&lt;/div&gt;&lt;span style=&quot;&quot;&gt;&lt;div style=&quot;text-align: left;&quot;&gt;- brush colors&lt;/div&gt;&lt;div style=&quot;text-align: left;&quot;&gt;- grid&lt;/div&gt;&lt;/span&gt;" style="strokeWidth=2;html=1;shape=mxgraph.flowchart.database;whiteSpace=wrap;" vertex="1" parent="1">
          <mxGeometry x="447.5" y="40" width="85" height="80" as="geometry" />
        </mxCell>
        <mxCell id="gEEGvMayAHdQgeYzYYgf-16" style="rounded=0;orthogonalLoop=1;jettySize=auto;html=1;exitX=0.5;exitY=0;exitDx=0;exitDy=0;startArrow=classic;startFill=1;" edge="1" parent="1" source="gEEGvMayAHdQgeYzYYgf-12" target="gEEGvMayAHdQgeYzYYgf-9">
          <mxGeometry relative="1" as="geometry" />
        </mxCell>
        <mxCell id="gEEGvMayAHdQgeYzYYgf-21" value="" style="edgeStyle=orthogonalEdgeStyle;rounded=0;orthogonalLoop=1;jettySize=auto;html=1;startArrow=classic;startFill=1;" edge="1" parent="1" source="gEEGvMayAHdQgeYzYYgf-12" target="gEEGvMayAHdQgeYzYYgf-13">
          <mxGeometry relative="1" as="geometry" />
        </mxCell>
        <mxCell id="gEEGvMayAHdQgeYzYYgf-22" style="edgeStyle=orthogonalEdgeStyle;rounded=0;orthogonalLoop=1;jettySize=auto;html=1;curved=1;startArrow=classic;startFill=1;" edge="1" parent="1" source="gEEGvMayAHdQgeYzYYgf-12" target="gEEGvMayAHdQgeYzYYgf-14">
          <mxGeometry relative="1" as="geometry">
            <Array as="points">
              <mxPoint x="310" y="530" />
              <mxPoint x="720" y="530" />
            </Array>
          </mxGeometry>
        </mxCell>
        <mxCell id="gEEGvMayAHdQgeYzYYgf-23" style="edgeStyle=orthogonalEdgeStyle;rounded=0;orthogonalLoop=1;jettySize=auto;html=1;curved=1;startArrow=classic;startFill=1;" edge="1" parent="1" source="gEEGvMayAHdQgeYzYYgf-12" target="gEEGvMayAHdQgeYzYYgf-13">
          <mxGeometry relative="1" as="geometry">
            <Array as="points">
              <mxPoint x="350" y="480" />
              <mxPoint x="470" y="480" />
            </Array>
          </mxGeometry>
        </mxCell>
        <mxCell id="gEEGvMayAHdQgeYzYYgf-12" value="Client" style="ellipse;whiteSpace=wrap;html=1;" vertex="1" parent="1">
          <mxGeometry x="270" y="340" width="120" height="80" as="geometry" />
        </mxCell>
        <mxCell id="gEEGvMayAHdQgeYzYYgf-17" value="" style="rounded=0;orthogonalLoop=1;jettySize=auto;html=1;startArrow=classic;startFill=1;" edge="1" parent="1" source="gEEGvMayAHdQgeYzYYgf-13" target="gEEGvMayAHdQgeYzYYgf-9">
          <mxGeometry relative="1" as="geometry" />
        </mxCell>
        <mxCell id="gEEGvMayAHdQgeYzYYgf-13" value="Client" style="ellipse;whiteSpace=wrap;html=1;" vertex="1" parent="1">
          <mxGeometry x="430" y="340" width="120" height="80" as="geometry" />
        </mxCell>
        <mxCell id="gEEGvMayAHdQgeYzYYgf-18" style="rounded=0;orthogonalLoop=1;jettySize=auto;html=1;exitX=0.5;exitY=0;exitDx=0;exitDy=0;startArrow=classic;startFill=1;" edge="1" parent="1" source="gEEGvMayAHdQgeYzYYgf-14" target="gEEGvMayAHdQgeYzYYgf-9">
          <mxGeometry relative="1" as="geometry" />
        </mxCell>
        <mxCell id="gEEGvMayAHdQgeYzYYgf-14" value="Client" style="ellipse;whiteSpace=wrap;html=1;" vertex="1" parent="1">
          <mxGeometry x="640" y="340" width="120" height="80" as="geometry" />
        </mxCell>
        <mxCell id="gEEGvMayAHdQgeYzYYgf-15" value="..." style="text;html=1;align=center;verticalAlign=middle;resizable=0;points=[];autosize=1;strokeColor=none;fillColor=none;fontSize=23;fontStyle=1" vertex="1" parent="1">
          <mxGeometry x="575" y="360" width="40" height="40" as="geometry" />
        </mxCell>
        <mxCell id="gEEGvMayAHdQgeYzYYgf-20" value="" style="edgeStyle=orthogonalEdgeStyle;rounded=0;orthogonalLoop=1;jettySize=auto;html=1;startArrow=classic;startFill=1;" edge="1" parent="1" source="gEEGvMayAHdQgeYzYYgf-19" target="gEEGvMayAHdQgeYzYYgf-12">
          <mxGeometry relative="1" as="geometry" />
        </mxCell>
        <mxCell id="gEEGvMayAHdQgeYzYYgf-19" value="&lt;br&gt;&lt;br&gt;&lt;div style=&quot;text-align: left;&quot;&gt;- users&lt;/div&gt;&lt;div style=&quot;border-color: var(--border-color); text-align: left;&quot;&gt;- brushes&lt;/div&gt;&lt;span style=&quot;&quot;&gt;&lt;div style=&quot;text-align: left;&quot;&gt;- grid&lt;/div&gt;&lt;div style=&quot;text-align: left;&quot;&gt;- positions&lt;br&gt;&lt;/div&gt;&lt;/span&gt;" style="strokeWidth=2;html=1;shape=mxgraph.flowchart.database;whiteSpace=wrap;" vertex="1" parent="1">
          <mxGeometry x="130" y="328.75" width="80" height="102.5" as="geometry" />
        </mxCell>
        <mxCell id="gEEGvMayAHdQgeYzYYgf-25" style="edgeStyle=orthogonalEdgeStyle;rounded=0;orthogonalLoop=1;jettySize=auto;html=1;curved=1;startArrow=classic;startFill=1;" edge="1" parent="1" source="gEEGvMayAHdQgeYzYYgf-13" target="gEEGvMayAHdQgeYzYYgf-14">
          <mxGeometry relative="1" as="geometry">
            <mxPoint x="340" y="430" as="sourcePoint" />
            <mxPoint x="500" y="430" as="targetPoint" />
            <Array as="points">
              <mxPoint x="520" y="480" />
              <mxPoint x="670" y="480" />
            </Array>
          </mxGeometry>
        </mxCell>
        <mxCell id="gEEGvMayAHdQgeYzYYgf-42" value="joining: Client" style="html=1;whiteSpace=wrap;" vertex="1" parent="1">
          <mxGeometry x="1300" y="40" width="110" height="50" as="geometry" />
        </mxCell>
        <mxCell id="gEEGvMayAHdQgeYzYYgf-43" value=":ModelService" style="html=1;whiteSpace=wrap;" vertex="1" parent="1">
          <mxGeometry x="1699" y="40" width="110" height="50" as="geometry" />
        </mxCell>
        <mxCell id="gEEGvMayAHdQgeYzYYgf-44" value="aClient: Client" style="html=1;whiteSpace=wrap;" vertex="1" parent="1">
          <mxGeometry x="1500" y="40" width="110" height="50" as="geometry" />
        </mxCell>
        <mxCell id="gEEGvMayAHdQgeYzYYgf-45" value="anotherClient: Client" style="html=1;whiteSpace=wrap;" vertex="1" parent="1">
          <mxGeometry x="1890" y="40" width="130" height="50" as="geometry" />
        </mxCell>
        <mxCell id="gEEGvMayAHdQgeYzYYgf-47" style="edgeStyle=orthogonalEdgeStyle;rounded=0;orthogonalLoop=1;jettySize=auto;html=1;dashed=1;endArrow=none;endFill=0;" edge="1" parent="1" source="gEEGvMayAHdQgeYzYYgf-43">
          <mxGeometry relative="1" as="geometry">
            <mxPoint x="1754" y="440" as="targetPoint" />
            <mxPoint x="1753.5" y="120" as="sourcePoint" />
          </mxGeometry>
        </mxCell>
        <mxCell id="gEEGvMayAHdQgeYzYYgf-48" style="edgeStyle=orthogonalEdgeStyle;rounded=0;orthogonalLoop=1;jettySize=auto;html=1;dashed=1;endArrow=none;endFill=0;" edge="1" parent="1">
          <mxGeometry relative="1" as="geometry">
            <mxPoint x="1555" y="440" as="targetPoint" />
            <mxPoint x="1554.5" y="90" as="sourcePoint" />
          </mxGeometry>
        </mxCell>
        <mxCell id="gEEGvMayAHdQgeYzYYgf-49" style="edgeStyle=orthogonalEdgeStyle;rounded=0;orthogonalLoop=1;jettySize=auto;html=1;dashed=1;endArrow=none;endFill=0;" edge="1" parent="1">
          <mxGeometry relative="1" as="geometry">
            <mxPoint x="1955" y="440" as="targetPoint" />
            <mxPoint x="1954.5" y="90" as="sourcePoint" />
          </mxGeometry>
        </mxCell>
        <mxCell id="gEEGvMayAHdQgeYzYYgf-50" style="edgeStyle=orthogonalEdgeStyle;rounded=0;orthogonalLoop=1;jettySize=auto;html=1;dashed=1;endArrow=none;endFill=0;" edge="1" parent="1">
          <mxGeometry relative="1" as="geometry">
            <mxPoint x="1355" y="440" as="targetPoint" />
            <mxPoint x="1354.5" y="90" as="sourcePoint" />
          </mxGeometry>
        </mxCell>
        <mxCell id="gEEGvMayAHdQgeYzYYgf-73" value="getModelService" style="edgeStyle=elbowEdgeStyle;rounded=0;orthogonalLoop=1;jettySize=auto;html=1;elbow=horizontal;curved=0;" edge="1" parent="1" source="gEEGvMayAHdQgeYzYYgf-52" target="gEEGvMayAHdQgeYzYYgf-58">
          <mxGeometry relative="1" as="geometry">
            <Array as="points">
              <mxPoint x="1455" y="110" />
            </Array>
            <mxPoint as="offset" />
          </mxGeometry>
        </mxCell>
        <mxCell id="gEEGvMayAHdQgeYzYYgf-78" style="edgeStyle=elbowEdgeStyle;rounded=0;orthogonalLoop=1;jettySize=auto;html=1;elbow=vertical;curved=0;" edge="1" parent="1" target="gEEGvMayAHdQgeYzYYgf-54">
          <mxGeometry relative="1" as="geometry">
            <mxPoint x="1360" y="190" as="sourcePoint" />
            <Array as="points">
              <mxPoint x="1560" y="190" />
            </Array>
          </mxGeometry>
        </mxCell>
        <mxCell id="gEEGvMayAHdQgeYzYYgf-79" value="join" style="edgeLabel;html=1;align=center;verticalAlign=middle;resizable=0;points=[];" vertex="1" connectable="0" parent="gEEGvMayAHdQgeYzYYgf-78">
          <mxGeometry x="0.2854" y="-3" relative="1" as="geometry">
            <mxPoint y="-3" as="offset" />
          </mxGeometry>
        </mxCell>
        <mxCell id="gEEGvMayAHdQgeYzYYgf-52" value="" style="html=1;points=[];perimeter=orthogonalPerimeter;outlineConnect=0;targetShapes=umlLifeline;portConstraint=eastwest;newEdgeStyle={&quot;edgeStyle&quot;:&quot;elbowEdgeStyle&quot;,&quot;elbow&quot;:&quot;vertical&quot;,&quot;curved&quot;:0,&quot;rounded&quot;:0};" vertex="1" parent="1">
          <mxGeometry x="1350" y="110" width="10" height="290" as="geometry" />
        </mxCell>
        <mxCell id="gEEGvMayAHdQgeYzYYgf-64" style="edgeStyle=elbowEdgeStyle;rounded=0;orthogonalLoop=1;jettySize=auto;html=1;elbow=vertical;curved=0;" edge="1" parent="1" target="gEEGvMayAHdQgeYzYYgf-63">
          <mxGeometry relative="1" as="geometry">
            <mxPoint x="1759" y="220" as="sourcePoint" />
            <Array as="points">
              <mxPoint x="1800" y="220" />
            </Array>
          </mxGeometry>
        </mxCell>
        <mxCell id="gEEGvMayAHdQgeYzYYgf-66" value="userJoin" style="edgeLabel;html=1;align=center;verticalAlign=middle;resizable=0;points=[];" vertex="1" connectable="0" parent="gEEGvMayAHdQgeYzYYgf-64">
          <mxGeometry x="0.1756" relative="1" as="geometry">
            <mxPoint x="-21" as="offset" />
          </mxGeometry>
        </mxCell>
        <mxCell id="gEEGvMayAHdQgeYzYYgf-67" style="edgeStyle=elbowEdgeStyle;rounded=0;orthogonalLoop=1;jettySize=auto;html=1;elbow=vertical;curved=0;dashed=1;" edge="1" parent="1" source="gEEGvMayAHdQgeYzYYgf-54" target="gEEGvMayAHdQgeYzYYgf-52">
          <mxGeometry relative="1" as="geometry">
            <Array as="points">
              <mxPoint x="1690" y="370" />
              <mxPoint x="1530" y="350" />
            </Array>
          </mxGeometry>
        </mxCell>
        <mxCell id="gEEGvMayAHdQgeYzYYgf-68" value="grid, users, brushes color" style="edgeLabel;html=1;align=center;verticalAlign=middle;resizable=0;points=[];" vertex="1" connectable="0" parent="gEEGvMayAHdQgeYzYYgf-67">
          <mxGeometry x="0.1636" y="1" relative="1" as="geometry">
            <mxPoint x="18" y="-1" as="offset" />
          </mxGeometry>
        </mxCell>
        <mxCell id="gEEGvMayAHdQgeYzYYgf-82" style="edgeStyle=elbowEdgeStyle;rounded=0;orthogonalLoop=1;jettySize=auto;html=1;elbow=vertical;curved=0;" edge="1" parent="1" target="gEEGvMayAHdQgeYzYYgf-80">
          <mxGeometry relative="1" as="geometry">
            <mxPoint x="1749" y="280" as="sourcePoint" />
            <Array as="points">
              <mxPoint x="1655" y="280" />
            </Array>
          </mxGeometry>
        </mxCell>
        <mxCell id="gEEGvMayAHdQgeYzYYgf-85" value="userJoin" style="edgeLabel;html=1;align=center;verticalAlign=middle;resizable=0;points=[];" vertex="1" connectable="0" parent="gEEGvMayAHdQgeYzYYgf-82">
          <mxGeometry x="0.1534" y="-1" relative="1" as="geometry">
            <mxPoint as="offset" />
          </mxGeometry>
        </mxCell>
        <mxCell id="gEEGvMayAHdQgeYzYYgf-54" value="" style="html=1;points=[];perimeter=orthogonalPerimeter;outlineConnect=0;targetShapes=umlLifeline;portConstraint=eastwest;newEdgeStyle={&quot;edgeStyle&quot;:&quot;elbowEdgeStyle&quot;,&quot;elbow&quot;:&quot;vertical&quot;,&quot;curved&quot;:0,&quot;rounded&quot;:0};" vertex="1" parent="1">
          <mxGeometry x="1749" y="190" width="10" height="180" as="geometry" />
        </mxCell>
        <mxCell id="gEEGvMayAHdQgeYzYYgf-74" style="edgeStyle=elbowEdgeStyle;rounded=0;orthogonalLoop=1;jettySize=auto;html=1;elbow=vertical;curved=0;dashed=1;" edge="1" parent="1" source="gEEGvMayAHdQgeYzYYgf-58" target="gEEGvMayAHdQgeYzYYgf-52">
          <mxGeometry relative="1" as="geometry">
            <Array as="points">
              <mxPoint x="1450" y="150" />
            </Array>
          </mxGeometry>
        </mxCell>
        <mxCell id="gEEGvMayAHdQgeYzYYgf-75" value="modelService" style="edgeLabel;html=1;align=center;verticalAlign=middle;resizable=0;points=[];" vertex="1" connectable="0" parent="gEEGvMayAHdQgeYzYYgf-74">
          <mxGeometry x="0.1789" y="3" relative="1" as="geometry">
            <mxPoint x="17" y="-4" as="offset" />
          </mxGeometry>
        </mxCell>
        <mxCell id="gEEGvMayAHdQgeYzYYgf-58" value="" style="html=1;points=[];perimeter=orthogonalPerimeter;outlineConnect=0;targetShapes=umlLifeline;portConstraint=eastwest;newEdgeStyle={&quot;edgeStyle&quot;:&quot;elbowEdgeStyle&quot;,&quot;elbow&quot;:&quot;vertical&quot;,&quot;curved&quot;:0,&quot;rounded&quot;:0};" vertex="1" parent="1">
          <mxGeometry x="1550" y="110" width="10" height="40" as="geometry" />
        </mxCell>
        <mxCell id="gEEGvMayAHdQgeYzYYgf-65" style="edgeStyle=elbowEdgeStyle;rounded=0;orthogonalLoop=1;jettySize=auto;html=1;elbow=vertical;curved=0;dashed=1;" edge="1" parent="1" source="gEEGvMayAHdQgeYzYYgf-63">
          <mxGeometry relative="1" as="geometry">
            <mxPoint x="1760" y="260" as="targetPoint" />
            <Array as="points">
              <mxPoint x="1795" y="260" />
            </Array>
          </mxGeometry>
        </mxCell>
        <mxCell id="gEEGvMayAHdQgeYzYYgf-63" value="" style="html=1;points=[];perimeter=orthogonalPerimeter;outlineConnect=0;targetShapes=umlLifeline;portConstraint=eastwest;newEdgeStyle={&quot;edgeStyle&quot;:&quot;elbowEdgeStyle&quot;,&quot;elbow&quot;:&quot;vertical&quot;,&quot;curved&quot;:0,&quot;rounded&quot;:0};" vertex="1" parent="1">
          <mxGeometry x="1950" y="220" width="10" height="40" as="geometry" />
        </mxCell>
        <mxCell id="gEEGvMayAHdQgeYzYYgf-84" style="edgeStyle=elbowEdgeStyle;rounded=0;orthogonalLoop=1;jettySize=auto;html=1;elbow=vertical;curved=0;dashed=1;" edge="1" parent="1">
          <mxGeometry relative="1" as="geometry">
            <mxPoint x="1560" y="320" as="sourcePoint" />
            <mxPoint x="1749" y="320" as="targetPoint" />
          </mxGeometry>
        </mxCell>
        <mxCell id="gEEGvMayAHdQgeYzYYgf-80" value="" style="html=1;points=[];perimeter=orthogonalPerimeter;outlineConnect=0;targetShapes=umlLifeline;portConstraint=eastwest;newEdgeStyle={&quot;edgeStyle&quot;:&quot;elbowEdgeStyle&quot;,&quot;elbow&quot;:&quot;vertical&quot;,&quot;curved&quot;:0,&quot;rounded&quot;:0};" vertex="1" parent="1">
          <mxGeometry x="1550" y="280" width="10" height="40" as="geometry" />
        </mxCell>
        <mxCell id="gEEGvMayAHdQgeYzYYgf-96" value="changeColor" style="rounded=0;orthogonalLoop=1;jettySize=auto;html=1;" edge="1" parent="1" source="gEEGvMayAHdQgeYzYYgf-89" target="gEEGvMayAHdQgeYzYYgf-91">
          <mxGeometry relative="1" as="geometry" />
        </mxCell>
        <mxCell id="gEEGvMayAHdQgeYzYYgf-97" style="rounded=0;orthogonalLoop=1;jettySize=auto;html=1;" edge="1" parent="1" source="gEEGvMayAHdQgeYzYYgf-89" target="gEEGvMayAHdQgeYzYYgf-90">
          <mxGeometry relative="1" as="geometry" />
        </mxCell>
        <mxCell id="gEEGvMayAHdQgeYzYYgf-104" value="changeColor" style="edgeLabel;html=1;align=center;verticalAlign=middle;resizable=0;points=[];" vertex="1" connectable="0" parent="gEEGvMayAHdQgeYzYYgf-97">
          <mxGeometry x="-0.0055" y="2" relative="1" as="geometry">
            <mxPoint as="offset" />
          </mxGeometry>
        </mxCell>
        <mxCell id="gEEGvMayAHdQgeYzYYgf-98" style="rounded=0;orthogonalLoop=1;jettySize=auto;html=1;" edge="1" parent="1" source="gEEGvMayAHdQgeYzYYgf-89" target="gEEGvMayAHdQgeYzYYgf-95">
          <mxGeometry relative="1" as="geometry" />
        </mxCell>
        <mxCell id="gEEGvMayAHdQgeYzYYgf-100" value="changeColor" style="edgeLabel;html=1;align=center;verticalAlign=middle;resizable=0;points=[];" vertex="1" connectable="0" parent="gEEGvMayAHdQgeYzYYgf-98">
          <mxGeometry x="-0.1086" y="3" relative="1" as="geometry">
            <mxPoint as="offset" />
          </mxGeometry>
        </mxCell>
        <mxCell id="gEEGvMayAHdQgeYzYYgf-99" style="rounded=0;orthogonalLoop=1;jettySize=auto;html=1;" edge="1" parent="1" source="gEEGvMayAHdQgeYzYYgf-89" target="gEEGvMayAHdQgeYzYYgf-92">
          <mxGeometry relative="1" as="geometry" />
        </mxCell>
        <mxCell id="gEEGvMayAHdQgeYzYYgf-105" value="changeColor" style="edgeLabel;html=1;align=center;verticalAlign=middle;resizable=0;points=[];" vertex="1" connectable="0" parent="gEEGvMayAHdQgeYzYYgf-99">
          <mxGeometry x="-0.1293" y="3" relative="1" as="geometry">
            <mxPoint x="-1" as="offset" />
          </mxGeometry>
        </mxCell>
        <mxCell id="gEEGvMayAHdQgeYzYYgf-89" value="Client" style="ellipse;whiteSpace=wrap;html=1;" vertex="1" parent="1">
          <mxGeometry x="1319" y="1140" width="120" height="80" as="geometry" />
        </mxCell>
        <mxCell id="gEEGvMayAHdQgeYzYYgf-90" value="Client" style="ellipse;whiteSpace=wrap;html=1;" vertex="1" parent="1">
          <mxGeometry x="1579" y="1190" width="120" height="80" as="geometry" />
        </mxCell>
        <mxCell id="gEEGvMayAHdQgeYzYYgf-91" value="Client" style="ellipse;whiteSpace=wrap;html=1;" vertex="1" parent="1">
          <mxGeometry x="1579" y="1090" width="120" height="80" as="geometry" />
        </mxCell>
        <mxCell id="gEEGvMayAHdQgeYzYYgf-92" value="Client" style="ellipse;whiteSpace=wrap;html=1;" vertex="1" parent="1">
          <mxGeometry x="1579" y="1320" width="120" height="80" as="geometry" />
        </mxCell>
        <mxCell id="gEEGvMayAHdQgeYzYYgf-93" value="..." style="text;html=1;align=center;verticalAlign=middle;resizable=0;points=[];autosize=1;strokeColor=none;fillColor=none;fontSize=23;fontStyle=1" vertex="1" parent="1">
          <mxGeometry x="1619" y="1273" width="40" height="40" as="geometry" />
        </mxCell>
        <mxCell id="gEEGvMayAHdQgeYzYYgf-95" value="ModelService" style="ellipse;whiteSpace=wrap;html=1;" vertex="1" parent="1">
          <mxGeometry x="1579" y="980" width="120" height="80" as="geometry" />
        </mxCell>
        <mxCell id="gEEGvMayAHdQgeYzYYgf-101" value="Change brush color" style="text;html=1;align=center;verticalAlign=middle;resizable=0;points=[];autosize=1;strokeColor=none;fillColor=none;fontSize=23;fontStyle=1" vertex="1" parent="1">
          <mxGeometry x="1390" y="910" width="240" height="40" as="geometry" />
        </mxCell>
        <mxCell id="gEEGvMayAHdQgeYzYYgf-106" value="mouseMove" style="rounded=0;orthogonalLoop=1;jettySize=auto;html=1;" edge="1" parent="1" source="gEEGvMayAHdQgeYzYYgf-113" target="gEEGvMayAHdQgeYzYYgf-115">
          <mxGeometry x="-0.0052" relative="1" as="geometry">
            <mxPoint as="offset" />
          </mxGeometry>
        </mxCell>
        <mxCell id="gEEGvMayAHdQgeYzYYgf-107" style="rounded=0;orthogonalLoop=1;jettySize=auto;html=1;" edge="1" parent="1" source="gEEGvMayAHdQgeYzYYgf-113" target="gEEGvMayAHdQgeYzYYgf-114">
          <mxGeometry relative="1" as="geometry" />
        </mxCell>
        <mxCell id="gEEGvMayAHdQgeYzYYgf-108" value="mouseMove" style="edgeLabel;html=1;align=center;verticalAlign=middle;resizable=0;points=[];" vertex="1" connectable="0" parent="gEEGvMayAHdQgeYzYYgf-107">
          <mxGeometry x="-0.0055" y="2" relative="1" as="geometry">
            <mxPoint as="offset" />
          </mxGeometry>
        </mxCell>
        <mxCell id="gEEGvMayAHdQgeYzYYgf-111" style="rounded=0;orthogonalLoop=1;jettySize=auto;html=1;" edge="1" parent="1" source="gEEGvMayAHdQgeYzYYgf-113" target="gEEGvMayAHdQgeYzYYgf-116">
          <mxGeometry relative="1" as="geometry" />
        </mxCell>
        <mxCell id="gEEGvMayAHdQgeYzYYgf-112" value="mouseMove" style="edgeLabel;html=1;align=center;verticalAlign=middle;resizable=0;points=[];" vertex="1" connectable="0" parent="gEEGvMayAHdQgeYzYYgf-111">
          <mxGeometry x="-0.1293" y="3" relative="1" as="geometry">
            <mxPoint x="14" y="4" as="offset" />
          </mxGeometry>
        </mxCell>
        <mxCell id="gEEGvMayAHdQgeYzYYgf-113" value="Client" style="ellipse;whiteSpace=wrap;html=1;" vertex="1" parent="1">
          <mxGeometry x="1850" y="1140" width="120" height="80" as="geometry" />
        </mxCell>
        <mxCell id="gEEGvMayAHdQgeYzYYgf-114" value="Client" style="ellipse;whiteSpace=wrap;html=1;" vertex="1" parent="1">
          <mxGeometry x="2121" y="1140" width="120" height="80" as="geometry" />
        </mxCell>
        <mxCell id="gEEGvMayAHdQgeYzYYgf-115" value="Client" style="ellipse;whiteSpace=wrap;html=1;" vertex="1" parent="1">
          <mxGeometry x="2121" y="1040" width="120" height="80" as="geometry" />
        </mxCell>
        <mxCell id="gEEGvMayAHdQgeYzYYgf-116" value="Client" style="ellipse;whiteSpace=wrap;html=1;" vertex="1" parent="1">
          <mxGeometry x="2121" y="1270" width="120" height="80" as="geometry" />
        </mxCell>
        <mxCell id="gEEGvMayAHdQgeYzYYgf-117" value="..." style="text;html=1;align=center;verticalAlign=middle;resizable=0;points=[];autosize=1;strokeColor=none;fillColor=none;fontSize=23;fontStyle=1" vertex="1" parent="1">
          <mxGeometry x="2161" y="1223" width="40" height="40" as="geometry" />
        </mxCell>
        <mxCell id="gEEGvMayAHdQgeYzYYgf-119" value="Mouse move" style="text;html=1;align=center;verticalAlign=middle;resizable=0;points=[];autosize=1;strokeColor=none;fillColor=none;fontSize=23;fontStyle=1" vertex="1" parent="1">
          <mxGeometry x="1961" y="910" width="160" height="40" as="geometry" />
        </mxCell>
        <mxCell id="gEEGvMayAHdQgeYzYYgf-123" style="rounded=0;orthogonalLoop=1;jettySize=auto;html=1;" edge="1" parent="1" source="gEEGvMayAHdQgeYzYYgf-127" target="gEEGvMayAHdQgeYzYYgf-132">
          <mxGeometry relative="1" as="geometry" />
        </mxCell>
        <mxCell id="gEEGvMayAHdQgeYzYYgf-124" value="colorPixel" style="edgeLabel;html=1;align=center;verticalAlign=middle;resizable=0;points=[];" vertex="1" connectable="0" parent="gEEGvMayAHdQgeYzYYgf-123">
          <mxGeometry x="-0.1086" y="3" relative="1" as="geometry">
            <mxPoint x="7" y="2" as="offset" />
          </mxGeometry>
        </mxCell>
        <mxCell id="gEEGvMayAHdQgeYzYYgf-127" value="Client" style="ellipse;whiteSpace=wrap;html=1;" vertex="1" parent="1">
          <mxGeometry x="490" y="1150" width="120" height="80" as="geometry" />
        </mxCell>
        <mxCell id="gEEGvMayAHdQgeYzYYgf-128" value="Client" style="ellipse;whiteSpace=wrap;html=1;" vertex="1" parent="1">
          <mxGeometry x="970" y="1150" width="120" height="80" as="geometry" />
        </mxCell>
        <mxCell id="gEEGvMayAHdQgeYzYYgf-129" value="Client" style="ellipse;whiteSpace=wrap;html=1;" vertex="1" parent="1">
          <mxGeometry x="970" y="1050" width="120" height="80" as="geometry" />
        </mxCell>
        <mxCell id="gEEGvMayAHdQgeYzYYgf-130" value="Client" style="ellipse;whiteSpace=wrap;html=1;" vertex="1" parent="1">
          <mxGeometry x="970" y="1280" width="120" height="80" as="geometry" />
        </mxCell>
        <mxCell id="gEEGvMayAHdQgeYzYYgf-131" value="..." style="text;html=1;align=center;verticalAlign=middle;resizable=0;points=[];autosize=1;strokeColor=none;fillColor=none;fontSize=23;fontStyle=1" vertex="1" parent="1">
          <mxGeometry x="1010" y="1233" width="40" height="40" as="geometry" />
        </mxCell>
        <mxCell id="gEEGvMayAHdQgeYzYYgf-135" value="colorPixel" style="rounded=0;orthogonalLoop=1;jettySize=auto;html=1;" edge="1" parent="1" source="gEEGvMayAHdQgeYzYYgf-132" target="gEEGvMayAHdQgeYzYYgf-129">
          <mxGeometry relative="1" as="geometry" />
        </mxCell>
        <mxCell id="gEEGvMayAHdQgeYzYYgf-136" value="colorPixel" style="rounded=0;orthogonalLoop=1;jettySize=auto;html=1;" edge="1" parent="1" source="gEEGvMayAHdQgeYzYYgf-132" target="gEEGvMayAHdQgeYzYYgf-128">
          <mxGeometry relative="1" as="geometry" />
        </mxCell>
        <mxCell id="gEEGvMayAHdQgeYzYYgf-137" value="colorPixel" style="rounded=0;orthogonalLoop=1;jettySize=auto;html=1;" edge="1" parent="1" source="gEEGvMayAHdQgeYzYYgf-132" target="gEEGvMayAHdQgeYzYYgf-130">
          <mxGeometry relative="1" as="geometry" />
        </mxCell>
        <mxCell id="gEEGvMayAHdQgeYzYYgf-132" value="ModelService" style="ellipse;whiteSpace=wrap;html=1;" vertex="1" parent="1">
          <mxGeometry x="720" y="1150" width="120" height="80" as="geometry" />
        </mxCell>
        <mxCell id="gEEGvMayAHdQgeYzYYgf-133" value="Pixel color" style="text;html=1;align=center;verticalAlign=middle;resizable=0;points=[];autosize=1;strokeColor=none;fillColor=none;fontSize=23;fontStyle=1" vertex="1" parent="1">
          <mxGeometry x="781" y="920" width="140" height="40" as="geometry" />
        </mxCell>
      </root>
    </mxGraphModel>
  </diagram>
</mxfile>
